<?xml version="1.0" encoding="UTF-8"?>
<svg width="500px" height="500px" viewBox="0 0 500 500" version="1.1" xmlns="http://www.w3.org/2000/svg" xmlns:xlink="http://www.w3.org/1999/xlink">
    <!-- Generator: Sketch 45 (43475) - http://www.bohemiancoding.com/sketch -->
    <title>Group 2</title>
    <desc>Created with Sketch.</desc>
    <defs></defs>
    <g id="Page-3" stroke="none" stroke-width="1" fill="none" fill-rule="evenodd">
        <g id="Group-2" fill-rule="nonzero" fill="#686868">
            <g id="Group">
                <g id="to-edit_icon_light_paint3" transform="translate(165.000000, 110.000000)">
                    <path d="M162.728953,0 L5.60459831,0 C2.51089198,0 0,2.72116372 0,6.0739489 L0,138.182338 C0,166.825938 21.500261,190.122388 47.9265009,190.122388 C52.7047802,190.122388 56.5928705,194.336082 56.5928705,199.514512 L56.5928705,272.609556 C56.5928705,289.09228 68.9637039,302.494769 84.1687716,302.494769 C99.3738392,302.494769 111.740681,289.087954 111.740681,272.609556 L111.740681,199.514512 C111.740681,194.336082 115.628771,190.122388 120.40705,190.122388 C146.83329,190.122388 168.337543,166.821612 168.337543,138.182338 L168.337543,6.0739489 C168.333551,2.71683754 165.822659,0 162.728953,0 Z M11.2091966,114.717167 L157.120363,114.717167 L157.120363,132.108389 L11.2091966,132.108389 L11.2091966,114.717167 Z M157.120363,12.1478978 L157.120363,102.564943 L136.909479,102.564943 L136.909479,37.6680008 C136.909479,34.3152156 134.398587,31.5940519 131.30488,31.5940519 C128.211174,31.5940519 125.700282,34.3152156 125.700282,37.6680008 L125.700282,102.564943 L105.489398,102.564943 L105.489398,37.6680008 C105.489398,34.3152156 102.978506,31.5940519 99.8847997,31.5940519 C96.7910934,31.5940519 94.2802014,34.3152156 94.2802014,37.6680008 L94.2802014,102.564943 L74.0653255,102.564943 L74.0653255,37.6680008 C74.0653255,34.3152156 71.5544335,31.5940519 68.4607272,31.5940519 C65.3670208,31.5940519 62.8561289,34.3152156 62.8561289,37.6680008 L62.8561289,102.564943 L42.6452448,102.564943 L42.6452448,37.6680008 C42.6452448,34.3152156 40.1343528,31.5940519 37.0406465,31.5940519 C33.9469402,31.5940519 31.4360482,34.3152156 31.4360482,37.6680008 L31.4360482,102.564943 L11.2251641,102.564943 L11.2251641,12.1478978 L157.120363,12.1478978 Z M120.403058,177.97449 C109.44535,177.97449 100.527492,187.634837 100.527492,199.514512 L100.527492,272.609556 C100.527492,282.391036 93.1864265,290.346871 84.1647797,290.346871 C75.1431328,290.346871 67.8020671,282.391036 67.8020671,272.609556 L67.8020671,199.514512 C67.8020671,187.634837 58.8842091,177.97449 47.9265009,177.97449 C29.5878082,177.97449 14.3428217,163.326063 11.6403196,144.260613 L156.697224,144.260613 C153.986738,163.326063 138.745743,177.97449 120.403058,177.97449 Z" id="Shape"></path>
                </g>
                <path d="M249.955695,0 C111.980152,0 0,111.980152 0,249.955695 C0,387.931239 111.980152,499.911391 249.955695,499.911391 C387.931239,499.911391 499.911391,387.931239 499.911391,249.955695 C499.911391,111.980152 387.931239,0 249.955695,0 Z M249.955695,484.414138 C120.978557,484.414138 15.4972531,379.432745 15.4972531,249.955695 C15.4972531,120.978557 120.478645,15.4972531 249.955695,15.4972531 C379.432745,15.4972531 484.414138,120.478645 484.414138,249.955695 C484.414138,378.932834 378.932834,484.414138 249.955695,484.414138 Z" id="Shape"></path>
            </g>
        </g>
    </g>
</svg>