<?xml version="1.0" encoding="UTF-8"?>
<svg width="499px" height="499px" viewBox="0 0 499 499" version="1.1" xmlns="http://www.w3.org/2000/svg" xmlns:xlink="http://www.w3.org/1999/xlink">
    <!-- Generator: Sketch 45 (43475) - http://www.bohemiancoding.com/sketch -->
    <title>icon_light_flower</title>
    <desc>Created with Sketch.</desc>
    <defs></defs>
    <g id="Landscaping" stroke="none" stroke-width="1" fill="none" fill-rule="evenodd">
        <g id="icon_light_flower" fill-rule="nonzero" fill="#686868">
            <g id="Group">
                <path d="M249.011431,0 C111.706528,0 0,111.706528 0,249.011431 C0,386.316333 111.706528,498.022861 249.011431,498.022861 C386.316333,498.022861 498.022861,386.316333 498.022861,249.011431 C498.022861,111.706528 386.316333,0 249.011431,0 Z M249.011431,481.422099 C120.859081,481.422099 16.600762,377.16378 16.600762,249.011431 C16.600762,120.859081 120.859081,16.600762 249.011431,16.600762 C377.16378,16.600762 481.422099,120.859081 481.422099,249.011431 C481.422099,377.16378 377.16378,481.422099 249.011431,481.422099 Z" id="Shape"></path>
                <path d="M401.317889,281.659596 C401.046743,281.626394 394.611181,280.835091 384.838866,280.835091 C363.977241,280.835091 325.286399,284.542595 300.462726,309.366268 C269.806652,340.022342 271.212183,391.180357 272.357636,406.087841 L257.311812,421.133665 L257.311812,302.100668 C315.408945,297.823205 361.404123,249.299177 361.404123,190.128528 L361.404123,133.265384 C361.404123,128.67804 357.691086,124.965003 353.103742,124.965003 C339.352778,124.965003 326.232642,127.565789 314.042149,132.108864 C303.389993,76.5793153 255.358455,47.9208664 253.194823,46.6536749 C253.106285,46.598339 253.006681,46.5762047 252.91261,46.5264024 C252.641464,46.3825291 252.370318,46.2663238 252.088105,46.1501185 C251.855694,46.0560475 251.634351,45.9675101 251.396407,45.8955735 C251.119727,45.8125696 250.837514,45.7572338 250.549768,45.7018979 C250.30629,45.6576292 250.073879,45.6078269 249.830402,45.5856926 C249.531588,45.5580246 249.238308,45.5580246 248.939494,45.5580246 C248.712617,45.5580246 248.480206,45.5580246 248.253329,45.580159 C247.948982,45.6078269 247.644635,45.6686964 247.340287,45.7295658 C247.118944,45.7738345 246.8976,45.8181032 246.68179,45.8845063 C246.399577,45.9675101 246.122898,46.0781818 245.846219,46.1943872 C245.608274,46.2939917 245.381397,46.3935963 245.15452,46.5098016 C245.043848,46.5651375 244.927643,46.598339 244.822505,46.6592085 C242.653339,47.9264 194.6052,76.595916 183.969645,132.108864 C171.784686,127.571323 158.66455,124.970537 144.919119,124.970537 C140.331775,124.970537 136.618738,128.683574 136.618738,133.270918 L136.618738,190.134061 C136.618738,249.304711 182.613916,297.828738 240.71105,302.106201 L240.71105,421.144732 L225.665226,406.098908 C226.810678,391.191424 228.216209,340.033409 197.560135,309.377335 C172.736463,284.553662 134.040086,280.846159 113.183996,280.846159 C103.417214,280.846159 96.9761182,281.637462 96.7049725,281.670663 C92.9365995,282.135484 89.9650631,285.112554 89.4947082,288.880927 C89.1626929,291.537049 81.7974882,354.332199 117.20138,389.73609 C142.025053,414.559763 180.726963,418.267267 201.588587,418.267267 C206.80676,418.267267 211.028887,418.04039 213.911886,417.830113 L243.129227,447.047455 C243.898396,447.822157 244.828039,448.436385 245.857286,448.862471 C245.896021,448.879072 245.94029,448.884606 245.979025,448.901206 C246.919735,449.271957 247.937915,449.4933 249.011431,449.4933 C250.084947,449.4933 251.103127,449.271957 252.043836,448.901206 C252.082572,448.884606 252.12684,448.879072 252.165575,448.862471 C253.194823,448.441919 254.118932,447.822157 254.893634,447.047455 L284.110975,417.830113 C286.993974,418.045923 291.216101,418.267267 296.434274,418.267267 C317.295898,418.267267 355.992275,414.559763 380.821481,389.73609 C416.225373,354.332199 408.860168,291.537049 408.528153,288.880927 C408.057798,285.095954 405.086262,282.129951 401.317889,281.659596 Z M344.803361,190.128528 C344.803361,240.152157 306.261925,281.344181 257.311812,285.566309 L257.311812,276.419289 L257.311812,237.357696 C257.311812,187.334066 295.853247,146.142042 344.803361,141.919915 L344.803361,190.128528 Z M249.011431,63.7856613 C260.47149,71.8868332 292.046139,97.7618876 298.315694,139.313595 C276.175811,151.736499 258.667541,171.419469 249.011431,195.136424 C239.355321,171.413935 221.841517,151.730965 199.6961,139.308061 C205.954587,97.7618876 237.556905,71.875766 249.011431,63.7856613 Z M153.2195,190.128528 L153.2195,141.919915 C202.169614,146.136508 240.71105,187.334066 240.71105,237.357696 L240.71105,276.419289 L240.71105,285.566309 C191.760936,281.344181 153.2195,240.152157 153.2195,190.128528 Z M128.943652,377.982751 C105.381637,354.420736 104.723141,313.621596 105.475708,297.623995 C107.633807,297.518857 110.234594,297.435853 113.183996,297.435853 C131.472502,297.435853 165.232918,300.512528 185.823397,321.103007 C204.875538,340.155148 208.953792,370.468139 209.41308,389.835695 L181.623404,362.046019 C178.380722,358.803337 173.129347,358.803337 169.886665,362.046019 C166.643983,365.283168 166.643983,370.545609 169.886665,373.782758 L197.704009,401.600102 C178.823409,401.157415 148.161801,397.195366 128.943652,377.982751 Z M369.079209,377.982751 C349.86106,397.195366 319.193919,401.157415 300.318852,401.600102 L328.136196,373.782758 C331.378878,370.545609 331.378878,365.283168 328.136196,362.046019 C324.893514,358.803337 319.642139,358.803337 316.399457,362.046019 L288.609782,389.835695 C289.074603,370.468139 293.147323,340.155148 312.199464,321.103007 C332.789943,300.506994 366.550359,297.435853 384.838866,297.435853 C387.788268,297.435853 390.400121,297.518857 392.55822,297.623995 C393.338456,313.599462 392.724228,354.337732 369.079209,377.982751 Z" id="Shape"></path>
            </g>
        </g>
    </g>
</svg>