<?xml version="1.0" encoding="UTF-8"?>
<svg width="500px" height="500px" viewBox="0 0 500 500" version="1.1" xmlns="http://www.w3.org/2000/svg" xmlns:xlink="http://www.w3.org/1999/xlink">
    <!-- Generator: Sketch 45 (43475) - http://www.bohemiancoding.com/sketch -->
    <title>Group 2</title>
    <desc>Created with Sketch.</desc>
    <defs></defs>
    <g id="Speakers" stroke="none" stroke-width="1" fill="none" fill-rule="evenodd">
        <g id="Group-2">
            <g id="Group" transform="translate(1.000000, 2.000000)">
                <g id="icon_light_speakers">
                    <path d="M404.198864,344.090909 C407.397727,344.090909 409.9375,346.630682 409.9375,349.829545 C409.9375,352.982955 407.397727,355.568182 404.198864,355.568182 C401.045455,355.568182 398.460227,352.988636 398.460227,349.829545 C398.465909,346.630682 401.045455,344.090909 404.198864,344.090909 Z" id="Shape" fill="#686868" fill-rule="nonzero"></path>
                    <path d="M403.914773,142.363636 C407.113636,142.363636 409.653409,144.903409 409.653409,148.102273 C409.653409,151.255682 407.113636,153.840909 403.914773,153.840909 C400.761364,153.840909 398.176136,151.261364 398.176136,148.102273 C398.176136,144.903409 400.761364,142.363636 403.914773,142.363636 Z" id="Shape" fill="#686868" fill-rule="nonzero"></path>
                    <path d="M335.9375,191.698864 C335.9375,198.704545 341.630682,204.403409 348.642045,204.403409 C355.6875,204.403409 361.386364,198.710227 361.386364,191.698864 C361.386364,184.653409 355.693182,178.954545 348.642045,178.954545 C341.630682,178.954545 335.9375,184.653409 335.9375,191.698864 Z M331.835227,191.698864 C331.835227,182.397727 339.375,174.857955 348.636364,174.857955 C357.9375,174.857955 365.477273,182.397727 365.477273,191.698864 C365.477273,200.960227 357.9375,208.5 348.636364,208.5 C339.375,208.5 331.835227,200.960227 331.835227,191.698864 Z" id="Shape" fill="#686868" fill-rule="nonzero"></path>
                    <path d="M326.590909,293.647727 C326.590909,281.477273 336.505682,271.602273 348.636364,271.602273 C360.806818,271.602273 370.681818,281.477273 370.681818,293.647727 C370.681818,305.778409 360.806818,315.693182 348.636364,315.693182 C336.511364,315.693182 326.590909,305.778409 326.590909,293.647727 Z M330.6875,293.647727 C330.6875,303.522727 338.761364,311.596591 348.636364,311.596591 C358.551136,311.596591 366.585227,303.522727 366.585227,293.647727 C366.585227,283.732955 358.556818,275.698864 348.636364,275.698864 C338.761364,275.698864 330.6875,283.732955 330.6875,293.647727 Z" id="Shape" fill="#686868" fill-rule="nonzero"></path>
                    <path d="M312.539773,191.698864 C312.539773,171.784091 328.727273,155.556818 348.642045,155.556818 C368.556818,155.556818 384.784091,171.784091 384.784091,191.698864 C384.784091,211.613636 368.556818,227.801136 348.642045,227.801136 C328.721591,227.801136 312.539773,211.613636 312.539773,191.698864 Z M348.636364,163.755682 C333.272727,163.755682 320.732955,176.295455 320.732955,191.698864 C320.732955,207.0625 333.272727,219.602273 348.636364,219.602273 C364.045455,219.602273 376.579545,207.0625 376.579545,191.698864 C376.585227,176.295455 364.045455,163.755682 348.636364,163.755682 Z" id="Shape" fill="#686868" fill-rule="nonzero"></path>
                    <path d="M348.636364,253.125 C326.306818,253.125 308.113636,271.278409 308.113636,293.647727 C308.113636,315.977273 326.306818,334.170455 348.636364,334.170455 C371.011364,334.170455 389.159091,315.977273 389.159091,293.647727 C389.164773,271.272727 371.011364,253.125 348.636364,253.125 Z M348.636364,342.369318 C321.795455,342.369318 299.914773,320.488636 299.914773,293.647727 C299.914773,266.767045 321.795455,244.926136 348.636364,244.926136 C375.517045,244.926136 397.357955,266.767045 397.357955,293.647727 C397.357955,320.488636 375.517045,342.369318 348.636364,342.369318 Z" id="Shape" fill="#686868" fill-rule="nonzero"></path>
                    <path d="M293.403409,344.090909 C296.556818,344.090909 299.142045,346.630682 299.142045,349.829545 C299.142045,352.982955 296.5625,355.568182 293.403409,355.568182 C290.204545,355.568182 287.664773,352.988636 287.664773,349.829545 C287.664773,346.630682 290.204545,344.090909 293.403409,344.090909 Z" id="Shape" fill="#686868" fill-rule="nonzero"></path>
                    <path d="M293.113636,142.363636 C296.267045,142.363636 298.852273,144.903409 298.852273,148.102273 C298.852273,151.255682 296.272727,153.840909 293.113636,153.840909 C289.914773,153.840909 287.335227,151.261364 287.335227,148.102273 C287.335227,144.903409 289.920455,142.363636 293.113636,142.363636 Z" id="Shape" fill="#686868" fill-rule="nonzero"></path>
                    <path d="M412.767045,379.448864 L284.551136,379.448864 C272.829545,379.448864 263.284091,369.943182 263.284091,358.181818 L263.284091,139.744318 C263.284091,127.982955 272.829545,118.4375 284.551136,118.4375 L412.767045,118.4375 C424.488636,118.4375 434.034091,127.982955 434.034091,139.744318 L434.034091,358.1875 C434.028409,369.943182 424.482955,379.448864 412.767045,379.448864 Z M284.551136,367.159091 L412.767045,367.159091 C417.727273,367.159091 421.738636,363.142045 421.738636,358.1875 L421.738636,139.744318 C421.738636,134.784091 417.721591,130.727273 412.767045,130.727273 L284.551136,130.727273 C279.590909,130.727273 275.579545,134.784091 275.579545,139.744318 L275.579545,358.1875 C275.579545,363.142045 279.590909,367.159091 284.551136,367.159091 Z" id="Shape" fill="#686868" fill-rule="nonzero"></path>
                    <path d="M205.630682,344.090909 C208.829545,344.090909 211.369318,346.630682 211.369318,349.829545 C211.369318,352.982955 208.829545,355.568182 205.630682,355.568182 C202.477273,355.568182 199.892045,352.988636 199.892045,349.829545 C199.892045,346.630682 202.471591,344.090909 205.630682,344.090909 Z" id="Shape" fill="#686868" fill-rule="nonzero"></path>
                    <path d="M205.340909,142.363636 C208.539773,142.363636 211.079545,144.903409 211.079545,148.102273 C211.079545,151.255682 208.539773,153.840909 205.340909,153.840909 C202.1875,153.840909 199.602273,151.261364 199.602273,148.102273 C199.602273,144.903409 202.1875,142.363636 205.340909,142.363636 Z" id="Shape" fill="#686868" fill-rule="nonzero"></path>
                    <path d="M137.363636,191.698864 C137.363636,198.704545 143.056818,204.403409 150.068182,204.403409 C157.113636,204.403409 162.8125,198.710227 162.8125,191.698864 C162.8125,184.653409 157.119318,178.954545 150.068182,178.954545 C143.056818,178.954545 137.363636,184.653409 137.363636,191.698864 Z M133.267045,191.698864 C133.267045,182.397727 140.806818,174.857955 150.068182,174.857955 C159.369318,174.857955 166.909091,182.397727 166.909091,191.698864 C166.909091,200.960227 159.369318,208.5 150.068182,208.5 C140.806818,208.5 133.267045,200.960227 133.267045,191.698864 Z" id="Shape" fill="#686868" fill-rule="nonzero"></path>
                    <path d="M128.022727,293.647727 C128.022727,281.477273 137.9375,271.602273 150.068182,271.602273 C162.238636,271.602273 172.113636,281.477273 172.113636,293.647727 C172.113636,305.778409 162.238636,315.693182 150.068182,315.693182 C137.9375,315.693182 128.022727,305.778409 128.022727,293.647727 Z M132.119318,293.647727 C132.119318,303.522727 140.193182,311.596591 150.068182,311.596591 C159.982955,311.596591 168.017045,303.522727 168.017045,293.647727 C168.017045,283.732955 159.982955,275.698864 150.068182,275.698864 C140.1875,275.698864 132.119318,283.732955 132.119318,293.647727 Z" id="Shape" fill="#686868" fill-rule="nonzero"></path>
                    <path d="M113.965909,191.698864 C113.965909,171.784091 130.153409,155.556818 150.068182,155.556818 C169.982955,155.556818 186.210227,171.784091 186.210227,191.698864 C186.210227,211.613636 169.982955,227.801136 150.068182,227.801136 C130.153409,227.801136 113.965909,211.613636 113.965909,191.698864 Z M150.0625,163.755682 C134.698864,163.755682 122.159091,176.295455 122.159091,191.698864 C122.159091,207.0625 134.698864,219.602273 150.0625,219.602273 C165.471591,219.602273 178.005682,207.0625 178.005682,191.698864 C178.011364,176.295455 165.471591,163.755682 150.0625,163.755682 Z" id="Shape" fill="#686868" fill-rule="nonzero"></path>
                    <path d="M150.0625,253.125 C127.732955,253.125 109.539773,271.278409 109.539773,293.647727 C109.539773,315.977273 127.732955,334.170455 150.0625,334.170455 C172.4375,334.170455 190.585227,315.977273 190.585227,293.647727 C190.590909,271.272727 172.4375,253.125 150.0625,253.125 Z M150.0625,342.369318 C123.221591,342.369318 101.340909,320.488636 101.340909,293.647727 C101.340909,266.767045 123.221591,244.926136 150.0625,244.926136 C176.943182,244.926136 198.784091,266.767045 198.784091,293.647727 C198.784091,320.488636 176.943182,342.369318 150.0625,342.369318 Z" id="Shape" fill="#686868" fill-rule="nonzero"></path>
                    <path d="M94.8295455,344.090909 C97.9829545,344.090909 100.568182,346.630682 100.568182,349.829545 C100.568182,352.982955 97.9886364,355.568182 94.8295455,355.568182 C91.6306818,355.568182 89.0909091,352.988636 89.0909091,349.829545 C89.0909091,346.630682 91.6363636,344.090909 94.8295455,344.090909 Z" id="Shape" fill="#686868" fill-rule="nonzero"></path>
                    <path d="M94.5454545,142.363636 C97.6988636,142.363636 100.284091,144.903409 100.284091,148.102273 C100.284091,151.255682 97.7045455,153.840909 94.5454545,153.840909 C91.3465909,153.840909 88.7670455,151.261364 88.7670455,148.102273 C88.7670455,144.903409 91.3465909,142.363636 94.5454545,142.363636 Z" id="Shape" fill="#686868" fill-rule="nonzero"></path>
                    <path d="M214.193182,379.448864 L85.9772727,379.448864 C74.2556818,379.448864 64.7102273,369.943182 64.7102273,358.181818 L64.7102273,139.744318 C64.7102273,127.982955 74.2556818,118.4375 85.9772727,118.4375 L214.193182,118.4375 C225.914773,118.4375 235.460227,127.982955 235.460227,139.744318 L235.460227,358.1875 C235.460227,369.943182 225.909091,379.448864 214.193182,379.448864 Z M85.9772727,367.159091 L214.193182,367.159091 C219.153409,367.159091 223.164773,363.142045 223.164773,358.1875 L223.164773,139.744318 C223.164773,134.784091 219.147727,130.727273 214.193182,130.727273 L85.9772727,130.727273 C81.0170455,130.727273 77.0056818,134.784091 77.0056818,139.744318 L77.0056818,358.1875 C77.0056818,363.142045 81.0227273,367.159091 85.9772727,367.159091 Z" id="Shape" fill="#686868" fill-rule="nonzero"></path>
                    <circle id="Oval" cx="249" cy="249" r="248.579545"></circle>
                </g>
            </g>
            <path d="M250,0 C112,0 0,112 0,250 C0,388 112,500 250,500 C388,500 500,388 500,250 C500,112 388,0 250,0 Z M250,484.5 C121,484.5 15.5,379.5 15.5,250 C15.5,121 120.5,15.5 250,15.5 C379.5,15.5 484.5,120.5 484.5,250 C484.5,379 379,484.5 250,484.5 Z" id="Shape" fill="#686868" fill-rule="nonzero"></path>
        </g>
    </g>
</svg>