<?xml version="1.0" encoding="UTF-8"?>
<svg width="502px" height="499px" viewBox="0 0 502 499" version="1.1" xmlns="http://www.w3.org/2000/svg" xmlns:xlink="http://www.w3.org/1999/xlink">
    <!-- Generator: Sketch 45 (43475) - http://www.bohemiancoding.com/sketch -->
    <title>icon_light_speakers</title>
    <desc>Created with Sketch.</desc>
    <defs></defs>
    <g id="Page-1" stroke="none" stroke-width="1" fill="none" fill-rule="evenodd" opacity="0.62">
        <g id="icon_light_speakers">
            <path d="M406.256326,344.045248 C409.463538,344.045248 412.009939,346.577325 412.009939,349.766496 C412.009939,352.91035 409.463538,355.487744 406.256326,355.487744 C403.094688,355.487744 400.502714,352.916015 400.502714,349.766496 C400.50841,346.577325 403.094688,344.045248 406.256326,344.045248 Z" id="Shape" fill="#000000" fill-rule="nonzero"></path>
            <path d="M405.971494,142.92923 C409.178706,142.92923 411.725107,145.461307 411.725107,148.650478 C411.725107,151.794332 409.178706,154.371725 405.971494,154.371725 C402.809855,154.371725 400.217881,151.799996 400.217881,148.650478 C400.217881,145.461307 402.809855,142.92923 405.971494,142.92923 Z" id="Shape" fill="#000000" fill-rule="nonzero"></path>
            <path d="M337.816818,192.114966 C337.816818,199.09942 343.524858,204.781016 350.554519,204.781016 C357.618361,204.781016 363.332097,199.105085 363.332097,192.114966 C363.332097,185.09086 357.624057,179.409265 350.554519,179.409265 C343.524858,179.409265 337.816818,185.09086 337.816818,192.114966 Z M333.70384,192.114966 C333.70384,182.842013 341.263289,175.325087 350.548823,175.325087 C359.874233,175.325087 367.433682,182.842013 367.433682,192.114966 C367.433682,201.348267 359.874233,208.865194 350.548823,208.865194 C341.263289,208.865194 333.70384,201.348267 333.70384,192.114966 Z" id="Shape" fill="#000000" fill-rule="nonzero"></path>
            <path d="M328.445835,293.754915 C328.445835,281.621338 338.386483,271.77626 350.548823,271.77626 C362.751039,271.77626 372.65181,281.621338 372.65181,293.754915 C372.65181,305.848839 362.751039,315.733569 350.548823,315.733569 C338.39218,315.733569 328.445835,305.848839 328.445835,293.754915 Z M332.553117,293.754915 C332.553117,303.599992 340.648052,311.649391 350.548823,311.649391 C360.48947,311.649391 368.544528,303.599992 368.544528,293.754915 C368.544528,283.870185 360.495167,275.860438 350.548823,275.860438 C340.648052,275.860438 332.553117,283.870185 332.553117,293.754915 Z" id="Shape" fill="#000000" fill-rule="nonzero"></path>
            <path d="M314.358029,192.114966 C314.358029,172.260537 330.587774,156.082435 350.554519,156.082435 C370.521264,156.082435 386.790886,172.260537 386.790886,192.114966 C386.790886,211.969395 370.521264,228.107846 350.554519,228.107846 C330.582078,228.107846 314.358029,211.969395 314.358029,192.114966 Z M350.548823,164.256455 C335.145091,164.256455 322.572593,176.758231 322.572593,192.114966 C322.572593,207.432049 335.145091,219.933825 350.548823,219.933825 C365.998127,219.933825 378.564929,207.432049 378.564929,192.114966 C378.570626,176.758231 365.998127,164.256455 350.548823,164.256455 Z" id="Shape" fill="#000000" fill-rule="nonzero"></path>
            <path d="M350.548823,253.354975 C328.161003,253.354975 309.920342,271.453378 309.920342,293.754915 C309.920342,316.016799 328.161003,334.154854 350.548823,334.154854 C372.982216,334.154854 391.177304,316.016799 391.177304,293.754915 C391.183,271.447713 372.982216,253.354975 350.548823,253.354975 Z M350.548823,342.328874 C323.637866,342.328874 301.700081,320.514493 301.700081,293.754915 C301.700081,266.955684 323.637866,245.180955 350.548823,245.180955 C377.499656,245.180955 399.397564,266.955684 399.397564,293.754915 C399.397564,320.514493 377.499656,342.328874 350.548823,342.328874 Z" id="Shape" fill="#000000" fill-rule="nonzero"></path>
            <path d="M295.171725,344.045248 C298.333363,344.045248 300.925337,346.577325 300.925337,349.766496 C300.925337,352.91035 298.33906,355.487744 295.171725,355.487744 C291.964513,355.487744 289.418112,352.916015 289.418112,349.766496 C289.418112,346.577325 291.964513,344.045248 295.171725,344.045248 Z" id="Shape" fill="#000000" fill-rule="nonzero"></path>
            <path d="M294.881196,142.92923 C298.042834,142.92923 300.634808,145.461307 300.634808,148.650478 C300.634808,151.794332 298.048531,154.371725 294.881196,154.371725 C291.673984,154.371725 289.087707,151.799996 289.087707,148.650478 C289.087707,145.461307 291.679681,142.92923 294.881196,142.92923 Z" id="Shape" fill="#000000" fill-rule="nonzero"></path>
            <path d="M414.846869,379.296065 L286.29635,379.296065 C274.544169,379.296065 264.973803,369.819186 264.973803,358.093461 L264.973803,140.317849 C264.973803,128.592123 274.544169,119.075592 286.29635,119.075592 L414.846869,119.075592 C426.59905,119.075592 436.169416,128.592123 436.169416,140.317849 L436.169416,358.099125 C436.163719,369.819186 426.593353,379.296065 414.846869,379.296065 Z M286.29635,367.043531 L414.846869,367.043531 C419.820041,367.043531 423.841873,363.038658 423.841873,358.099125 L423.841873,140.317849 C423.841873,135.372651 419.814344,131.328126 414.846869,131.328126 L286.29635,131.328126 C281.323178,131.328126 277.301345,135.372651 277.301345,140.317849 L277.301345,358.099125 C277.301345,363.038658 281.323178,367.043531 286.29635,367.043531 Z" id="Shape" fill="#000000" fill-rule="nonzero"></path>
            <path d="M207.169934,344.045248 C210.377145,344.045248 212.923546,346.577325 212.923546,349.766496 C212.923546,352.91035 210.377145,355.487744 207.169934,355.487744 C204.008295,355.487744 201.416321,352.916015 201.416321,349.766496 C201.416321,346.577325 204.002598,344.045248 207.169934,344.045248 Z" id="Shape" fill="#000000" fill-rule="nonzero"></path>
            <path d="M206.879405,142.92923 C210.086617,142.92923 212.633017,145.461307 212.633017,148.650478 C212.633017,151.794332 210.086617,154.371725 206.879405,154.371725 C203.717766,154.371725 201.125792,151.799996 201.125792,148.650478 C201.125792,145.461307 203.717766,142.92923 206.879405,142.92923 Z" id="Shape" fill="#000000" fill-rule="nonzero"></path>
            <path d="M138.724729,192.114966 C138.724729,199.09942 144.432769,204.781016 151.46243,204.781016 C158.526271,204.781016 164.240008,199.105085 164.240008,192.114966 C164.240008,185.09086 158.531968,179.409265 151.46243,179.409265 C144.432769,179.409265 138.724729,185.09086 138.724729,192.114966 Z M134.617447,192.114966 C134.617447,182.842013 142.176897,175.325087 151.46243,175.325087 C160.78784,175.325087 168.34729,182.842013 168.34729,192.114966 C168.34729,201.348267 160.78784,208.865194 151.46243,208.865194 C142.176897,208.865194 134.617447,201.348267 134.617447,192.114966 Z" id="Shape" fill="#000000" fill-rule="nonzero"></path>
            <path d="M129.359443,293.754915 C129.359443,281.621338 139.30009,271.77626 151.46243,271.77626 C163.664646,271.77626 173.565418,281.621338 173.565418,293.754915 C173.565418,305.848839 163.664646,315.733569 151.46243,315.733569 C139.30009,315.733569 129.359443,305.848839 129.359443,293.754915 Z M133.466725,293.754915 C133.466725,303.599992 141.561659,311.649391 151.46243,311.649391 C161.403078,311.649391 169.458136,303.599992 169.458136,293.754915 C169.458136,283.870185 161.403078,275.860438 151.46243,275.860438 C141.555962,275.860438 133.466725,283.870185 133.466725,293.754915 Z" id="Shape" fill="#000000" fill-rule="nonzero"></path>
            <path d="M115.26594,192.114966 C115.26594,172.260537 131.495685,156.082435 151.46243,156.082435 C171.429175,156.082435 187.698797,172.260537 187.698797,192.114966 C187.698797,211.969395 171.429175,228.107846 151.46243,228.107846 C131.495685,228.107846 115.26594,211.969395 115.26594,192.114966 Z M151.456733,164.256455 C136.053002,164.256455 123.480504,176.758231 123.480504,192.114966 C123.480504,207.432049 136.053002,219.933825 151.456733,219.933825 C166.906038,219.933825 179.47284,207.432049 179.47284,192.114966 C179.478536,176.758231 166.906038,164.256455 151.456733,164.256455 Z" id="Shape" fill="#000000" fill-rule="nonzero"></path>
            <path d="M151.456733,253.354975 C129.068914,253.354975 110.828253,271.453378 110.828253,293.754915 C110.828253,316.016799 129.068914,334.154854 151.456733,334.154854 C173.890126,334.154854 192.085214,316.016799 192.085214,293.754915 C192.090911,271.447713 173.890126,253.354975 151.456733,253.354975 Z M151.456733,342.328874 C124.545777,342.328874 102.607992,320.514493 102.607992,293.754915 C102.607992,266.955684 124.545777,245.180955 151.456733,245.180955 C178.407567,245.180955 200.305475,266.955684 200.305475,293.754915 C200.305475,320.514493 178.407567,342.328874 151.456733,342.328874 Z" id="Shape" fill="#000000" fill-rule="nonzero"></path>
            <path d="M96.0796354,344.045248 C99.2412741,344.045248 101.833248,346.577325 101.833248,349.766496 C101.833248,352.91035 99.2469707,355.487744 96.0796354,355.487744 C92.8724236,355.487744 90.3260227,352.916015 90.3260227,349.766496 C90.3260227,346.577325 92.8781202,344.045248 96.0796354,344.045248 Z" id="Shape" fill="#000000" fill-rule="nonzero"></path>
            <path d="M95.7948031,142.92923 C98.9564418,142.92923 101.548416,145.461307 101.548416,148.650478 C101.548416,151.794332 98.9621384,154.371725 95.7948031,154.371725 C92.5875913,154.371725 90.0013139,151.799996 90.0013139,148.650478 C90.0013139,145.461307 92.5875913,142.92923 95.7948031,142.92923 Z" id="Shape" fill="#000000" fill-rule="nonzero"></path>
            <path d="M215.75478,379.296065 L87.2042606,379.296065 C75.4520794,379.296065 65.8817137,369.819186 65.8817137,358.093461 L65.8817137,140.317849 C65.8817137,128.592123 75.4520794,119.075592 87.2042606,119.075592 L215.75478,119.075592 C227.506961,119.075592 237.077326,128.592123 237.077326,140.317849 L237.077326,358.099125 C237.077326,369.819186 227.501264,379.296065 215.75478,379.296065 Z M87.2042606,367.043531 L215.75478,367.043531 C220.727952,367.043531 224.749784,363.038658 224.749784,358.099125 L224.749784,140.317849 C224.749784,135.372651 220.722255,131.328126 215.75478,131.328126 L87.2042606,131.328126 C82.2310884,131.328126 78.2092562,135.372651 78.2092562,140.317849 L78.2092562,358.099125 C78.2092562,363.038658 82.2367851,367.043531 87.2042606,367.043531 Z" id="Shape" fill="#000000" fill-rule="nonzero"></path>
            <ellipse id="Oval" stroke="#000000" stroke-width="2.5" cx="250.652434" cy="249.242474" rx="249.228273" ry="247.826324"></ellipse>
        </g>
    </g>
</svg>