<?xml version="1.0" encoding="UTF-8"?>
<svg width="500px" height="500px" viewBox="0 0 500 500" version="1.1" xmlns="http://www.w3.org/2000/svg" xmlns:xlink="http://www.w3.org/1999/xlink">
    <!-- Generator: Sketch 45 (43475) - http://www.bohemiancoding.com/sketch -->
    <title>Group 2</title>
    <desc>Created with Sketch.</desc>
    <defs></defs>
    <g id="Paintbrush" stroke="none" stroke-width="1" fill="none" fill-rule="evenodd">
        <g id="Group-2" fill-rule="nonzero" fill="#686868">
            <g id="Group">
                <g id="to-edit_icon_light_paint3" transform="translate(147.000000, 83.000000)">
                    <path d="M198.757344,0 L6.84546328,0 C3.06680656,0 0,3.32363272 0,7.41872868 L0,168.776078 C0,203.761407 26.2604453,232.215719 58.5374873,232.215719 C64.3736836,232.215719 69.1226018,237.36233 69.1226018,243.687272 L69.1226018,332.965648 C69.1226018,353.097668 84.2323531,369.467484 102.803841,369.467484 C121.37533,369.467484 136.480205,353.092384 136.480205,332.965648 L136.480205,243.687272 C136.480205,237.36233 141.229124,232.215719 147.06532,232.215719 C179.342362,232.215719 205.607683,203.756123 205.607683,168.776078 L205.607683,7.41872868 C205.602807,3.31834873 202.536001,0 198.757344,0 Z M13.6909266,140.11569 L191.907005,140.11569 L191.907005,161.357349 L13.6909266,161.357349 L13.6909266,140.11569 Z M191.907005,14.8374574 L191.907005,125.272948 L167.221406,125.272948 L167.221406,46.0077426 C167.221406,41.9126467 164.1546,38.5890139 160.375943,38.5890139 C156.597286,38.5890139 153.53048,41.9126467 153.53048,46.0077426 L153.53048,125.272948 L128.844881,125.272948 L128.844881,46.0077426 C128.844881,41.9126467 125.778074,38.5890139 121.999418,38.5890139 C118.220761,38.5890139 115.153954,41.9126467 115.153954,46.0077426 L115.153954,125.272948 L90.4634799,125.272948 L90.4634799,46.0077426 C90.4634799,41.9126467 87.3966733,38.5890139 83.6180166,38.5890139 C79.8393599,38.5890139 76.7725533,41.9126467 76.7725533,46.0077426 L76.7725533,125.272948 L52.0869546,125.272948 L52.0869546,46.0077426 C52.0869546,41.9126467 49.020148,38.5890139 45.2414913,38.5890139 C41.4628346,38.5890139 38.396028,41.9126467 38.396028,46.0077426 L38.396028,125.272948 L13.7104293,125.272948 L13.7104293,14.8374574 L191.907005,14.8374574 Z M147.060444,217.378262 C133.676686,217.378262 122.784403,229.177422 122.784403,243.687272 L122.784403,332.965648 C122.784403,344.91276 113.818016,354.630026 102.798966,354.630026 C91.7799151,354.630026 82.8135284,344.91276 82.8135284,332.965648 L82.8135284,243.687272 C82.8135284,229.177422 71.9212457,217.378262 58.5374873,217.378262 C36.1385854,217.378262 17.5183402,199.486655 14.2175007,176.20009 L191.390182,176.20009 C188.079591,199.486655 169.464222,217.378262 147.060444,217.378262 Z" id="Shape"></path>
                </g>
                <path d="M249.955695,0 C111.980152,0 0,111.980152 0,249.955695 C0,387.931239 111.980152,499.911391 249.955695,499.911391 C387.931239,499.911391 499.911391,387.931239 499.911391,249.955695 C499.911391,111.980152 387.931239,0 249.955695,0 Z M249.955695,484.414138 C120.978557,484.414138 15.4972531,379.432745 15.4972531,249.955695 C15.4972531,120.978557 120.478645,15.4972531 249.955695,15.4972531 C379.432745,15.4972531 484.414138,120.478645 484.414138,249.955695 C484.414138,378.932834 378.932834,484.414138 249.955695,484.414138 Z" id="Shape"></path>
            </g>
        </g>
    </g>
</svg>