<?xml version="1.0" encoding="UTF-8"?>
<svg width="500px" height="500px" viewBox="0 0 500 500" version="1.1" xmlns="http://www.w3.org/2000/svg" xmlns:xlink="http://www.w3.org/1999/xlink">
    <!-- Generator: Sketch 45 (43475) - http://www.bohemiancoding.com/sketch -->
    <title>icon_light_tent</title>
    <desc>Created with Sketch.</desc>
    <defs></defs>
    <g id="Page-1" stroke="none" stroke-width="1" fill="none" fill-rule="evenodd" opacity="0.622509058">
        <g id="icon_light_tent" fill-rule="nonzero" fill="#000000">
            <g id="Group">
                <path d="M249.818982,0 C111.918904,0 0,111.918904 0,249.818982 C0,387.71906 111.918904,499.637964 249.818982,499.637964 C387.71906,499.637964 499.637964,387.71906 499.637964,249.818982 C499.637964,111.918904 387.71906,0 249.818982,0 Z M249.818982,484.149187 C120.912387,484.149187 15.4887769,379.225215 15.4887769,249.818982 C15.4887769,120.912387 120.412749,15.4887769 249.818982,15.4887769 C379.225215,15.4887769 484.149187,120.412749 484.149187,249.818982 C484.149187,378.725577 378.725577,484.149187 249.818982,484.149187 Z" id="Shape"></path>
                <path d="M415.199148,366.234628 C414.199872,365.235352 307.776986,286.792191 257.81319,133.403336 L273.301966,100.427231 C275.300518,96.929765 273.301966,92.4330234 269.804501,90.4344715 C266.307035,88.4359197 261.810293,90.4344715 259.811741,93.9319373 L249.818982,115.916008 L239.326585,94.4315752 C237.328033,90.9341095 232.831291,89.4351956 229.333826,90.9341095 C225.83636,92.9326613 224.337446,97.429403 225.83636,100.926869 L241.824775,133.902974 C191.860978,286.792191 85.4380919,365.73499 84.4388159,366.734266 C81.9406261,368.732818 80.9413502,372.230283 81.9406261,375.228111 C82.939902,378.225939 85.9377298,380.224491 88.9355576,380.224491 L411.202044,380.224491 C414.199872,380.224491 417.1977,378.225939 418.196976,375.228111 C419.196252,371.231007 418.196976,368.23318 415.199148,366.234628 Z M109.420714,364.735714 C138.899354,338.75454 200.854462,275.800156 242.324413,175.372925 L242.324413,265.307759 C239.826223,317.270107 208.349031,355.242593 199.855186,364.735714 L109.420714,364.735714 Z M219.341066,364.735714 C228.834188,352.744403 241.824775,332.758884 249.818982,306.77771 C257.81319,332.758884 270.803777,352.744403 280.296898,364.735714 L219.341066,364.735714 Z M299.782778,364.735714 C291.288933,355.242593 259.811741,317.270107 257.313552,265.307759 L257.313552,175.372925 C298.783503,275.800156 360.73861,338.75454 390.21725,364.735714 L299.782778,364.735714 Z" id="Shape"></path>
            </g>
        </g>
    </g>
</svg>