<?xml version="1.0" encoding="UTF-8"?>
<svg width="500px" height="500px" viewBox="0 0 500 500" version="1.1" xmlns="http://www.w3.org/2000/svg" xmlns:xlink="http://www.w3.org/1999/xlink">
    <!-- Generator: Sketch 45 (43475) - http://www.bohemiancoding.com/sketch -->
    <title>Group 2</title>
    <desc>Created with Sketch.</desc>
    <defs></defs>
    <g id="TOols" stroke="none" stroke-width="1" fill="none" fill-rule="evenodd">
        <g id="Group-2" fill-rule="nonzero" fill="#686868">
            <g id="icon_light_tools">
                <g id="Group">
                    <path d="M250,0 C111.927778,0 0,111.927778 0,250 C0,388.072222 111.927778,500 250,500 C388.072222,500 500,388.072222 500,250 C500,111.927778 388.072222,0 250,0 Z M250,483.333333 C121.338889,483.333333 16.6666667,378.661111 16.6666667,250 C16.6666667,121.338889 121.338889,16.6666667 250,16.6666667 C378.661111,16.6666667 483.333333,121.338889 483.333333,250 C483.333333,378.661111 378.661111,483.333333 250,483.333333 Z" id="Shape"></path>
                    <path d="M143.077778,291.494444 C141.877778,290.094444 140.177778,289.227778 138.338889,289.077778 C136.527778,288.938889 134.694444,289.522222 133.283333,290.716667 L107.85,312.422222 C100.377778,318.794444 99.4888889,330.066667 105.861111,337.538889 L148.944444,388.027778 C152.072222,391.705556 156.644444,393.816667 161.477778,393.816667 C165.388889,393.816667 169.188889,392.411111 172.166667,389.872222 C180.638889,382.633333 185.794444,372.533333 186.677778,361.422222 C187.555556,350.311111 184.055556,339.527778 176.827778,331.044444 L143.077778,291.494444 Z M163.144444,379.3 C162.55,379.816667 161.905556,379.922222 161.472222,379.922222 C161.027778,379.922222 160.183333,379.805556 159.505556,379.011111 L116.422222,328.516667 C115.016667,326.872222 115.211111,324.388889 116.861111,322.983333 L137.011111,305.788889 L166.25,340.055556 C171.077778,345.711111 173.411111,352.905556 172.827778,360.316667 C172.238889,367.733333 168.805556,374.477778 163.144444,379.3 Z" id="Shape"></path>
                    <path d="M295.377778,252.605556 C295.222222,252.466667 295.033333,252.372222 294.872222,252.238889 L293.833333,244.866667 L310.466667,247.011111 C312.655556,247.333333 314.772222,246.55 316.294444,245.011111 C317.816667,243.472222 318.533333,241.311111 318.238889,239.161111 L315.905556,222.544444 L332.55,224.666667 C334.683333,224.95 336.85,224.194444 338.372222,222.655556 C339.894444,221.116667 340.605556,218.955556 340.311111,216.811111 L337.977778,200.205556 L354.611111,202.355556 C356.794444,202.666667 358.916667,201.894444 360.438889,200.355556 C361.961111,198.816667 362.677778,196.655556 362.383333,194.505556 L360.05,177.894444 L376.683333,180.044444 C378.861111,180.355556 380.977778,179.583333 382.505556,178.05 C384.027778,176.511111 384.75,174.35 384.455556,172.205556 L382.144444,155.544444 L398.794444,157.694444 C400.972222,158.011111 403.088889,157.233333 404.616667,155.7 C406.138889,154.161111 406.861111,152 406.566667,149.855556 L403.005556,124.188889 C402.983333,124.016667 402.877778,123.883333 402.838889,123.716667 C402.738889,123.255556 402.566667,122.833333 402.372222,122.388889 C402.183333,121.966667 402,121.572222 401.738889,121.2 C401.633333,121.05 401.605556,120.872222 401.488889,120.733333 L367.133333,78.9444444 C365.95,77.5055556 364.238889,76.6 362.383333,76.4388889 C360.483333,76.2833333 358.677778,76.8666667 357.261111,78.0722222 L219.261111,195.766667 L196.011111,172.516667 L199.655556,168.872222 C204.294444,164.238889 206.844444,158.083333 206.844444,151.522222 C206.844444,150.1 206.672222,148.711111 206.438889,147.338889 C210.477778,140.422222 218.361111,128.627778 223.444444,124.688889 C227.694444,121.405556 245.083333,111.922222 255.733333,106.35 C257.694444,105.322222 259.05,103.433333 259.377778,101.244444 C259.716667,99.0611111 258.988889,96.85 257.422222,95.2888889 L250.266667,88.1333333 C248.722222,86.5888889 246.538889,85.85 244.377778,86.1666667 C243.227778,86.3277778 216.055556,90.2277778 202.622222,94.8555556 C189.288889,99.4388889 174.516667,109.033333 170.655556,111.627778 C169.311111,111.4 167.944444,111.227778 166.555556,111.227778 C160,111.227778 153.838889,113.783333 149.205556,118.416667 L113.111111,154.511111 C106.116667,161.505556 104.294444,171.694444 107.527778,180.411111 L96.4333333,191.505556 C93.9055556,190.738889 91.2944444,190.216667 88.5833333,190.216667 C81.3777778,190.216667 74.6,193.022222 69.5,198.122222 L65.3166667,202.305556 C62.6055556,205.016667 62.6055556,209.411111 65.3166667,212.127778 L105.95,252.761111 C107.25,254.061111 109.022222,254.794444 110.861111,254.794444 C112.705556,254.794444 114.472222,254.061111 115.777778,252.761111 L119.955556,248.572222 C127.233333,241.294444 129.355556,230.883333 126.555556,221.655556 L137.655556,210.555556 C140.361111,211.566667 143.233333,212.155556 146.211111,212.155556 C152.766667,212.155556 158.927778,209.6 163.561111,204.966667 L167.205556,201.322222 L188.2,222.316667 L144.922222,259.222222 C143.05,258.677778 141.127778,258.294444 139.138889,258.294444 C134.211111,258.294444 129.433333,260.055556 125.677778,263.261111 L73.65,307.655556 C64.95,315.088889 63.9111111,328.205556 71.3333333,336.905556 L135.544444,412.172222 C141.761111,419.461111 150.827778,423.633333 160.411111,423.633333 C168.172222,423.633333 175.7,420.855556 181.605556,415.816667 C197.294444,402.427778 206.838889,383.733333 208.466667,363.166667 C209.255556,353.194444 208.1,343.377778 205.216667,334.111111 L222.211111,336.283333 C222.505556,336.322222 222.794444,336.338889 223.088889,336.338889 C224.933333,336.338889 226.716667,335.6 228.033333,334.272222 C229.55,332.738889 230.266667,330.572222 229.972222,328.427778 L227.638889,311.822222 L244.272222,313.966667 C246.461111,314.294444 248.577778,313.505556 250.1,311.966667 C251.622222,310.427778 252.338889,308.261111 252.044444,306.116667 L252.016667,305.922222 L339.827778,403.411111 C345.35,408.933333 352.688889,411.977778 360.505556,411.977778 C368.311111,411.977778 375.655556,408.933333 381.177778,403.411111 L398.111111,386.477778 C409.511111,375.083333 409.511111,356.533333 397.85,344.883333 L295.377778,252.605556 Z M360.888889,93.2055556 L389.505556,128.022222 L391.544444,142.738889 L374.894444,140.588889 C372.722222,140.277778 370.6,141.05 369.072222,142.583333 C367.55,144.122222 366.827778,146.283333 367.122222,148.427778 L369.433333,165.088889 L352.783333,162.938889 C350.605556,162.622222 348.477778,163.4 346.955556,164.938889 C345.433333,166.477778 344.716667,168.638889 345.011111,170.788889 L347.344444,187.4 L330.711111,185.25 C328.533333,184.927778 326.411111,185.711111 324.883333,187.25 C323.355556,188.788889 322.644444,190.95 322.938889,193.1 L325.272222,209.716667 L308.627778,207.594444 C306.483333,207.311111 304.327778,208.066667 302.805556,209.605556 C301.283333,211.144444 300.572222,213.305556 300.866667,215.45 L303.2,232.055556 L286.566667,229.905556 C284.394444,229.594444 282.266667,230.366667 280.738889,231.905556 C279.211111,233.444444 278.5,235.611111 278.794444,237.755556 L280.227778,247.922222 C277.85,248.166667 275.538889,248.816667 273.394444,249.877778 L229.1,205.583333 L360.888889,93.2055556 Z M207.133333,107.972222 C214.183333,105.544444 226.094444,103.238889 234.944444,101.716667 C227.138889,106 218.427778,110.983333 214.927778,113.688889 C209.255556,118.083333 202.977778,126.844444 198.783333,133.288889 L191.272222,125.772222 L184.655556,119.155556 C190.588889,115.544444 199.327778,110.655556 207.133333,107.972222 Z M110.822222,237.977778 L80.0666667,207.222222 C85.0611111,202.944444 93.1055556,203.222222 97.8111111,207.9 L110.133333,220.216667 C114.983333,225.083333 115.216667,232.838889 110.822222,237.977778 Z M119.05,209.494444 L108.555556,199 L115.733333,191.822222 L126.233333,202.322222 L119.05,209.494444 Z M153.738889,195.127778 C149.722222,199.133333 142.733333,199.138889 138.705556,195.15 L122.9,179.344444 C118.777778,175.188889 118.783333,168.455556 122.922222,164.311111 L159.016667,128.216667 C161.027778,126.211111 163.7,125.094444 166.544444,125.094444 C169.372222,125.094444 172.033333,126.2 174.044444,128.188889 L189.822222,143.966667 C191.833333,145.977778 192.944444,148.655556 192.944444,151.494444 C192.944444,154.333333 191.838889,157.011111 189.822222,159.022222 L153.738889,195.127778 Z M194.611111,362.05 C193.277778,378.911111 185.455556,394.25 172.577778,405.222222 C169.183333,408.122222 164.855556,409.722222 160.4,409.722222 C154.888889,409.722222 149.672222,407.316667 146.105556,403.127778 L81.8888889,327.866667 C79.4388889,324.988889 79.7833333,320.655556 82.6611111,318.2 L134.688889,273.811111 C136.277778,272.455556 137.983333,272.166667 139.133333,272.166667 C141.15,272.166667 143.055556,273.044444 144.355556,274.577778 L179.655556,315.95 C190.633333,328.816667 195.95,345.188889 194.611111,362.05 Z M234.672222,282.394444 L237.005556,299 L220.372222,296.855556 C218.2,296.544444 216.072222,297.316667 214.544444,298.855556 C213.016667,300.394444 212.305556,302.561111 212.6,304.705556 L214.933333,321.322222 L198.838889,319.266667 C196.394444,314.927778 193.522222,310.794444 190.222222,306.922222 L156.588889,267.5 L198.05,232.144444 L240.5,274.594444 C239.044444,274.816667 237.672222,275.466667 236.611111,276.538889 C235.088889,278.083333 234.377778,280.244444 234.672222,282.394444 Z M177.022222,191.483333 L186.183333,182.322222 L262.833333,258.966667 L259.888889,261.911111 C259.838889,261.961111 259.788889,262.005556 259.744444,262.055556 L253.672222,268.127778 L177.022222,191.483333 Z M388.272222,376.633333 L371.338889,393.566667 C368.438889,396.461111 364.583333,398.066667 360.488889,398.066667 C356.388889,398.066667 352.533333,396.466667 349.883333,393.827778 L257.627778,291.383333 C255.622222,289.15 255.705556,285.733333 257.827778,283.616667 L258.583333,282.861111 C258.583333,282.861111 258.583333,282.861111 258.583333,282.861111 L277.566667,263.877778 C277.572222,263.872222 277.572222,263.866667 277.577778,263.861111 L278.316667,263.122222 C279.377778,262.061111 280.8,261.472222 282.305556,261.472222 C283.705556,261.472222 285.044444,261.988889 286.083333,262.922222 L388.277778,354.927778 C394.25,360.911111 394.255556,370.65 388.272222,376.633333 Z" id="Shape"></path>
                </g>
            </g>
        </g>
    </g>
</svg>