<?xml version="1.0" encoding="UTF-8"?>
<svg width="500px" height="500px" viewBox="0 0 500 500" version="1.1" xmlns="http://www.w3.org/2000/svg" xmlns:xlink="http://www.w3.org/1999/xlink">
    <!-- Generator: Sketch 45 (43475) - http://www.bohemiancoding.com/sketch -->
    <title>Untitled</title>
    <desc>Created with Sketch.</desc>
    <defs></defs>
    <g id="Tent" stroke="none" stroke-width="1" fill="none" fill-rule="evenodd">
        <g id="icon_light_tent" fill-rule="nonzero" fill="#686868">
            <g id="Group">
                <path d="M250,0 C112,0 0,112 0,250 C0,388 112,500 250,500 C388,500 500,388 500,250 C500,112 388,0 250,0 Z M250,484.5 C121,484.5 15.5,379.5 15.5,250 C15.5,121 120.5,15.5 250,15.5 C379.5,15.5 484.5,120.5 484.5,250 C484.5,379 379,484.5 250,484.5 Z" id="Shape"></path>
                <path d="M415.5,366.5 C414.5,365.5 308,287 258,133.5 L273.5,100.5 C275.5,97 273.5,92.5 270,90.5 C266.5,88.5 262,90.5 260,94 L250,116 L239.5,94.5 C237.5,91 233,89.5 229.5,91 C226,93 224.5,97.5 226,101 L242,134 C192,287 85.5,366 84.5,367 C82,369 81,372.5 82,375.5 C83,378.5 86,380.5 89,380.5 L411.5,380.5 C414.5,380.5 417.5,378.5 418.5,375.5 C419.5,371.5 418.5,368.5 415.5,366.5 Z M109.5,365 C139,339 201,276 242.5,175.5 L242.5,265.5 C240,317.5 208.5,355.5 200,365 L109.5,365 Z M219.5,365 C229,353 242,333 250,307 C258,333 271,353 280.5,365 L219.5,365 Z M300,365 C291.5,355.5 260,317.5 257.5,265.5 L257.5,175.5 C299,276 361,339 390.5,365 L300,365 Z" id="Shape"></path>
            </g>
        </g>
    </g>
</svg>