<?xml version="1.0" encoding="UTF-8"?>
<svg width="260px" height="263px" viewBox="0 0 260 263" version="1.1" xmlns="http://www.w3.org/2000/svg" xmlns:xlink="http://www.w3.org/1999/xlink">
    <!-- Generator: Sketch 45 (43475) - http://www.bohemiancoding.com/sketch -->
    <title>Group 6</title>
    <desc>Created with Sketch.</desc>
    <defs></defs>
    <g id="Logo" stroke="none" stroke-width="1" fill="none" fill-rule="evenodd">
        <g id="Group-6" fill-rule="nonzero" fill="#16887F">
            <g id="Group-3">
                <g id="Group-2">
                    <g id="icon_light_tools">
                        <g id="Group">
                            <path d="M60.5143331,162.847958 C59.6074997,161.789986 58.3228191,161.13505 56.933181,161.021696 C55.5645343,160.916739 54.1790945,161.35756 53.1127256,162.260196 L33.8928965,178.662964 C28.2461796,183.478417 27.5744512,191.996773 32.3899042,197.643489 L64.9477406,235.797663 C67.3113849,238.576939 70.7665879,240.172294 74.4191111,240.172294 C77.3747161,240.172294 80.2463551,239.110124 82.4966452,237.1915 C88.8990566,231.721111 92.7950814,224.088597 93.4626115,215.691992 C94.1259433,207.295387 91.4810127,199.146482 86.0190211,192.735674 L60.5143331,162.847958 Z M75.6786019,229.20213 C75.2293835,229.592572 74.7423804,229.67234 74.4149128,229.67234 C74.0790486,229.67234 73.4409066,229.584175 72.9287137,228.983818 L40.3708774,190.825446 C39.3087068,189.582749 39.4556474,187.706107 40.7025433,186.643937 L55.9297867,173.65019 L78.025453,199.545321 C81.6737779,203.819193 83.437065,209.255994 82.9962432,214.85653 C82.5512232,220.461264 79.9566722,225.558003 75.6786019,229.20213 Z" id="Shape"></path>
                            <path d="M175.606599,133.45984 C175.489047,133.354882 175.346305,133.283511 175.224554,133.182752 L174.439471,127.611605 L187.009189,129.232149 C188.66332,129.475651 190.262874,128.88369 191.413208,127.72076 C192.563543,126.557831 193.105124,124.924691 192.882614,123.299948 L191.119327,110.742825 L203.697442,112.346576 C205.30959,112.56069 206.946928,111.989721 208.097263,110.826791 C209.247598,109.663861 209.78498,108.030721 209.56247,106.410177 L207.799183,93.8614503 L220.368901,95.4861933 C222.018834,95.7212983 223.622586,95.1377342 224.772921,93.9748044 C225.923255,92.8118746 226.464837,91.1787349 226.242326,89.5539918 L224.479039,77.0010672 L237.048757,78.6258103 C238.694492,78.8609152 240.294045,78.2773512 241.448578,77.1186197 C242.598913,75.9556899 243.144693,74.3225502 242.922183,72.7020054 L241.175689,60.111296 L253.758001,61.7360391 C255.403736,61.9753423 257.003289,61.38758 258.157823,60.2288485 C259.308157,59.0659187 259.853937,57.432779 259.631427,55.8122342 L256.940315,36.4160764 C256.923522,36.285929 256.843754,36.1851697 256.814366,36.0592207 C256.738796,35.7107615 256.608649,35.3916906 256.461708,35.0558263 C256.318966,34.7367554 256.180422,34.4386759 255.983102,34.1573896 C255.903334,34.0440354 255.882343,33.9096897 255.794178,33.8047322 L229.831875,2.22510035 C228.937637,1.13773999 227.64456,0.453416676 226.242326,0.331665902 C224.806507,0.21411343 223.442059,0.654935199 222.371492,1.56596685 L118.085656,90.5070065 L100.51576,72.9371103 L103.269846,70.1830238 C106.775429,66.6816395 108.70245,62.0299203 108.70245,57.071725 C108.70245,55.9969595 108.572302,54.9473839 108.395974,53.9104031 C111.44814,48.6835164 117.405531,39.7705201 121.246978,36.7939236 C124.458679,34.3127268 137.599366,27.1462243 145.647512,22.9353269 C147.129513,22.1586409 148.153899,20.731218 148.401599,19.0770868 C148.657695,17.4271539 148.107718,15.7562295 146.923796,14.5765065 L141.516383,9.16909278 C140.349254,8.00196467 138.699322,7.44359043 137.066182,7.68289368 C136.197133,7.80464445 115.663235,10.7518528 105.51174,14.2490389 C95.4358137,17.7126385 84.2725272,24.963107 81.3547069,26.9237143 C80.3387177,26.7515839 79.3059353,26.6214365 78.2563597,26.6214365 C73.3023626,26.6214365 68.6464451,28.5526557 65.1450608,32.05404 L37.8686891,59.3304117 C32.5830261,64.6160746 31.2059829,72.3157615 33.649395,78.9028982 L25.2653848,87.2869085 C23.3551571,86.7075427 21.3819549,86.3129023 19.3331833,86.3129023 C13.8879849,86.3129023 8.76605574,88.4330451 4.91201399,92.2870868 L1.75069217,95.4484086 C-0.298079482,97.4971803 -0.298079482,100.818038 1.75069217,102.871008 L32.4570771,133.577392 C33.4394799,134.559795 34.7787384,135.113971 36.1683765,135.113971 C37.562213,135.113971 38.8972732,134.559795 39.8838743,133.577392 L43.0409978,130.411872 C48.5407742,124.912096 50.1445257,117.044477 48.0285812,110.071096 L56.4167898,101.682888 C58.4613631,102.446979 60.6318855,102.891999 62.8821757,102.891999 C67.8361727,102.891999 72.4920902,100.96078 75.9934746,97.4593955 L78.7475611,94.7053091 L94.6129464,110.570694 L61.9081695,138.460018 C60.4933415,138.048585 59.0407289,137.758902 57.5377365,137.758902 C53.8138422,137.758902 50.203302,139.089764 47.3652494,141.512184 L8.048146,175.06082 C1.4736042,180.678149 0.688521619,190.590341 6.29745383,197.164883 L54.8214348,254.043486 C59.5193353,259.551659 66.3709651,262.704584 73.613037,262.704584 C79.4780657,262.704584 85.1667657,260.605433 89.6295613,256.797572 C101.485568,246.679663 108.698251,232.552375 109.928354,217.010259 C110.524513,209.474306 109.651266,202.055905 107.472347,195.053137 L120.314955,196.694673 C120.537465,196.724061 120.755776,196.736656 120.978286,196.736656 C122.372123,196.736656 123.719778,196.178282 124.714776,195.174888 C125.860912,194.016156 126.402493,192.378818 126.179983,190.758273 L124.416696,178.209547 L136.986414,179.830092 C138.640545,180.077792 140.240099,179.481633 141.390433,178.318703 C142.540768,177.155773 143.082349,175.518435 142.859839,173.89789 L142.838848,173.75095 L209.197218,247.422763 C213.370331,251.595876 218.916289,253.896545 224.8233,253.896545 C230.721915,253.896545 236.272071,251.595876 240.445184,247.422763 L253.24161,234.626337 C261.856527,226.015618 261.856527,211.997486 253.04429,203.193645 L175.606599,133.45984 Z M225.112983,13.002143 L246.73844,39.3129051 L248.279217,50.4342086 L235.696904,48.8094655 C234.055368,48.5743606 232.451616,49.1579246 231.297083,50.3166561 C230.146748,51.4795859 229.600969,53.1127256 229.823479,54.7332704 L231.569972,67.3239798 L218.98766,65.6992367 C217.341925,65.4599335 215.733975,66.0476958 214.58364,67.2106256 C213.433305,68.3735554 212.891724,70.0066951 213.114234,71.6314382 L214.877521,84.1843629 L202.307804,82.5596198 C200.662069,82.3161182 199.058317,82.9080789 197.903784,84.0710087 C196.749251,85.2339385 196.211868,86.8670782 196.434378,88.4918213 L198.197665,101.048944 L185.619551,99.4451927 C183.999006,99.2310792 182.370065,99.8020484 181.21973,100.964978 C180.069395,102.127908 179.532012,103.761048 179.754522,105.381592 L181.517809,117.930319 L168.948091,116.305576 C167.306555,116.070471 165.698605,116.654035 164.544072,117.816965 C163.389539,118.979894 162.852156,120.617232 163.074666,122.237777 L164.157828,129.920671 C162.360955,130.105396 160.614461,130.596598 158.993916,131.398473 L125.52085,97.9254071 L225.112983,13.002143 Z M108.920762,24.1612312 C114.248407,22.326573 123.249568,20.5842774 129.937464,19.4339425 C124.038849,22.6708338 117.455911,26.4367112 114.81098,28.4812845 C110.524513,31.8021419 105.780431,38.422865 102.610713,43.292896 L96.9346077,37.6125926 L91.9344294,32.6124143 C96.4182165,29.8835176 103.022146,26.1890113 108.920762,24.1612312 Z M36.1389884,122.405709 L12.8971855,99.1639064 C16.6714595,95.9312134 22.7506016,96.1411285 26.3065638,99.6760993 L35.6183989,108.983736 C39.283517,112.661449 39.4598457,118.522279 36.1389884,122.405709 Z M42.3566745,100.881012 L34.426081,92.9504186 L39.8502879,87.5262117 L47.7850797,95.4610035 L42.3566745,100.881012 Z M68.5708757,90.0242017 C65.5355029,93.0511779 60.2540383,93.0553762 57.2102689,90.0409949 L45.2660982,78.0968242 C42.1509577,74.9564938 42.155156,69.8681511 45.2828914,66.7362174 L72.5592631,39.4598457 C74.0790486,37.9442585 76.0984321,37.1003997 78.247963,37.1003997 C80.3848991,37.1003997 82.395886,37.9358619 83.9156715,39.4388542 L95.8388508,51.3620335 C97.3586363,52.881819 98.1982968,54.9054008 98.1982968,57.0507334 C98.1982968,59.196066 97.3628346,61.2196479 95.8388508,62.7394334 L68.5708757,90.0242017 Z M99.4577876,216.1664 C98.450195,228.908249 92.538985,240.499762 82.8073196,248.79141 C80.2421568,250.982923 76.9716791,252.192035 73.6046404,252.192035 C69.4399243,252.192035 65.4977182,250.37417 62.8024079,247.208649 L14.2742287,190.334245 C12.4227773,188.159524 12.683072,184.884848 14.8577927,183.029198 L54.1748962,149.484761 C55.3756107,148.460375 56.6644896,148.242063 57.5335382,148.242063 C59.0575221,148.242063 60.4975398,148.905395 61.4799426,150.064127 L88.1559571,181.328886 C96.4518029,191.052154 100.469578,203.424552 99.4577876,216.1664 Z M129.731747,155.971138 L131.495034,168.519865 L118.925317,166.89932 C117.28378,166.664215 115.67583,167.247779 114.521297,168.410709 C113.366764,169.573639 112.829381,171.210977 113.051891,172.831521 L114.815178,185.388644 L102.652696,183.835272 C100.805443,180.556398 98.6349203,177.432861 96.1411285,174.506644 L70.7246049,144.715489 L102.056537,117.997492 L134.135767,150.076721 C133.035811,150.244654 131.998831,150.735855 131.196955,151.546127 C130.04662,152.713255 129.509237,154.346395 129.731747,155.971138 Z M86.1659617,87.2701152 L93.0889626,80.3471143 L151.012943,138.266896 L148.787843,140.491997 C148.750058,140.529781 148.712273,140.563368 148.678687,140.601153 L144.089942,145.189897 L86.1659617,87.2701152 Z M245.806416,227.186945 L233.00999,239.983371 C230.818476,242.170686 227.904854,243.383996 224.810705,243.383996 C221.712358,243.383996 218.798736,242.174885 216.796146,240.180691 L147.079133,162.763992 C145.563546,161.076274 145.626521,158.494318 147.230272,156.894765 L147.801242,156.323796 C147.801242,156.323796 152.583108,151.541929 162.146841,141.978196 C162.14964,141.975397 162.338564,141.785074 162.713612,141.407227 C163.515488,140.605351 164.590253,140.160331 165.727993,140.160331 C166.785966,140.160331 167.797757,140.550773 168.582839,141.256088 L245.810615,210.784176 C250.32379,215.305748 250.327988,222.665373 245.806416,227.186945 Z" id="Shape"></path>
                        </g>
                    </g>
                </g>
            </g>
        </g>
    </g>
</svg>