<?xml version="1.0" encoding="UTF-8"?>
<svg width="4310px" height="567px" viewBox="0 0 4310 567" version="1.1" xmlns="http://www.w3.org/2000/svg" xmlns:xlink="http://www.w3.org/1999/xlink">
    <!-- Generator: Sketch 45 (43475) - http://www.bohemiancoding.com/sketch -->
    <title>Group 5</title>
    <desc>Created with Sketch.</desc>
    <defs></defs>
    <g id="Line-break" stroke="none" stroke-width="1" fill="none" fill-rule="evenodd">
        <g id="Group-5" transform="translate(40.000000, 0.000000)">
            <g id="Group-4" transform="translate(1835.000000, 0.000000)" fill-rule="nonzero" fill="#FFFFFF">
                <g id="Group-2">
                    <g id="icon_light_tools">
                        <g id="Group">
                            <path d="M208.416001,287.51234 C206.458989,285.229159 203.686555,283.815761 200.687615,283.571135 C197.733976,283.344629 194.744096,284.295954 192.442795,286.243906 L150.965009,321.64227 C138.778984,332.034367 137.329345,350.417597 147.721442,362.603622 L217.983616,444.943098 C223.084532,450.940978 230.541111,454.38387 238.423521,454.38387 C244.801931,454.38387 250.999136,452.091628 255.855426,447.951098 C269.672294,436.145603 278.080198,419.674084 279.520777,401.553601 C280.952295,383.433118 275.244343,365.847189 263.456968,352.0122 L208.416001,287.51234 Z M241.141593,430.709458 C240.172147,431.552061 239.121159,431.724205 238.414461,431.724205 C237.689641,431.724205 236.312485,431.53394 235.207135,430.238326 L164.944962,347.88979 C162.65272,345.207958 162.969829,341.15803 165.660721,338.865789 L198.522217,310.824342 L246.206268,366.707912 C254.079618,375.931238 257.88492,387.66425 256.933594,399.750613 C255.973209,411.846035 250.373979,422.845169 241.141593,430.709458 Z" id="Shape"></path>
                            <path d="M378.509713,287.340541 C378.256026,287.114035 377.947978,286.960011 377.685231,286.742565 L375.990965,274.719625 L403.117329,278.216878 C406.687064,278.742372 410.139016,277.464878 412.621522,274.955191 C415.104028,272.445504 416.2728,268.92107 415.792607,265.414757 L411.987305,238.315574 L439.131789,241.776586 C442.610922,242.238659 446.144416,241.006466 448.626922,238.496779 C451.109428,235.987092 452.269139,232.462658 451.788947,228.965405 L447.983645,201.884343 L475.110008,205.390656 C478.670683,205.89803 482.131696,204.638656 484.614202,202.128969 C487.096708,199.619282 488.265479,196.094848 487.785286,192.588535 L483.979985,165.498412 L511.106348,169.004726 C514.657963,169.512099 518.109915,168.252726 520.601481,165.752099 C523.083988,163.242412 524.261819,159.717978 523.781626,156.220725 L520.012566,129.04906 L547.16611,132.555374 C550.717724,133.071808 554.169676,131.803374 556.661243,129.302747 C559.143749,126.79306 560.321581,123.268626 559.841388,119.771373 L554.033773,77.9130569 C553.997532,77.6321895 553.825387,77.4147437 553.761966,77.1429364 C553.598881,76.3909364 553.318014,75.702358 553.000905,74.9775387 C552.692857,74.2889603 552.393869,73.6456832 551.968038,73.038647 C551.795893,72.7940205 551.750592,72.5040927 551.560327,72.2775867 L495.531793,4.12644949 C493.601961,1.77984692 490.811407,0.30302754 487.785286,0.0402805339 C484.686684,-0.21340623 481.742105,0.737919136 479.431744,2.70399156 L254.375343,194.64521 L216.458232,156.728098 L222.40175,150.78458 C229.967052,143.228339 234.125703,133.189591 234.125703,122.489446 C234.125703,120.170024 233.844835,117.904963 233.464305,115.667084 C240.051101,104.387083 252.907584,85.15219 261.197705,78.7284787 C268.128789,73.3738759 296.487346,57.9080435 313.855829,48.8206212 C317.054094,47.1444765 319.264793,44.0639944 319.799347,40.4942592 C320.352022,36.9335843 319.16513,33.3276081 316.610142,30.7816802 L304.940551,19.1120891 C302.421804,16.5933419 298.861129,15.3883298 295.336695,15.9047635 C293.461225,16.1675106 249.147583,22.5278001 227.239919,30.0749814 C205.495339,37.5496807 181.404157,53.1967179 175.107289,57.4278507 C172.914711,57.0563808 170.685891,56.7755133 168.420831,56.7755133 C157.729746,56.7755133 147.681938,60.9432245 140.125696,68.4994659 L81.2613068,127.363856 C69.8544626,138.7707 66.8827034,155.387183 72.155764,169.602702 L54.0624615,187.696004 C49.9400516,186.445691 45.6817381,185.594028 41.2603402,185.594028 C29.5092068,185.594028 18.4557121,190.16945 10.1384103,198.486752 L3.31604842,205.309114 C-1.10534947,209.730512 -1.10534947,216.897163 3.31604842,221.327621 L69.5826554,287.594228 C71.7027519,289.714324 74.592969,290.910276 77.5919089,290.910276 C80.5999091,290.910276 83.481066,289.714324 85.6102227,287.594228 L92.4235244,280.762806 C104.292441,268.893889 107.753453,251.914997 103.187091,236.865935 L121.289454,218.763573 C125.701792,220.412537 130.385937,221.372922 135.242226,221.372922 C145.933311,221.372922 155.981119,217.205211 163.537361,209.64897 L169.480879,203.705451 L203.719532,237.944104 L133.14025,298.131289 C130.086949,297.243385 126.952105,296.618229 123.708539,296.618229 C115.672104,296.618229 107.880297,299.490325 101.755573,304.718085 L16.9064108,377.118475 C2.71807248,389.241078 1.0238073,410.632309 13.1282901,424.820647 L117.846562,547.5688 C127.984973,559.455837 142.771287,566.260078 158.400204,566.260078 C171.057361,566.260078 183.333988,561.729958 192.965025,553.512318 C218.551147,531.677136 234.116643,501.189423 236.771293,467.648409 C238.057848,451.385275 236.173317,435.375828 231.471052,420.263345 L259.186331,423.8059 C259.666524,423.869322 260.137656,423.896502 260.617849,423.896502 C263.625849,423.896502 266.534187,422.69149 268.681464,420.526092 C271.15491,418.025466 272.323681,414.491972 271.843488,410.994718 L268.038187,383.913656 L295.16455,387.410909 C298.734286,387.945464 302.186238,386.658909 304.668744,384.149222 C307.15125,381.639536 308.320021,378.106041 307.839828,374.608788 L307.794527,374.29168 L451.000706,533.280799 C460.006586,542.286679 471.975165,547.251691 484.722925,547.251691 C497.452564,547.251691 509.430204,542.286679 518.436084,533.280799 L546.0517,505.665183 C564.643316,487.082627 564.643316,456.83048 545.625869,437.831154 L378.509713,287.340541 Z M485.348081,27.3840896 L532.017386,84.1646236 L535.342494,108.165204 L508.18895,104.65889 C504.646396,104.151517 501.185384,105.41089 498.693817,107.911517 C496.211311,110.421204 495.03348,113.945638 495.513672,117.442891 L499.282733,144.614555 L472.129189,141.108242 C468.577574,140.591808 465.107502,141.860242 462.624996,144.369929 C460.142489,146.879616 458.973718,150.40405 459.453911,153.910363 L463.259212,181.000486 L436.132849,177.494172 C432.581234,176.968678 429.120222,178.246172 426.628656,180.755859 C424.137089,183.265546 422.977378,186.78998 423.457571,190.296294 L427.262873,217.395476 L400.118389,213.934464 C396.621136,213.472392 393.105762,214.704584 390.623256,217.214271 C388.140749,219.723958 386.981039,223.248392 387.461231,226.745645 L391.266533,253.826708 L364.140169,250.320394 C360.597615,249.813021 357.127543,251.072394 354.635976,253.582081 C352.14441,256.091768 350.984699,259.625262 351.464892,263.122515 L353.802434,279.702758 C349.92465,280.101408 346.15559,281.161456 342.658337,282.891963 L270.421031,210.654656 L485.348081,27.3840896 Z M234.596835,51.4662118 C246.094282,47.5068862 265.51944,43.7468859 279.952405,41.2643797 C267.222765,48.249826 253.016306,56.3768627 247.308354,60.7892004 C238.057848,67.9558514 227.819775,82.2438524 220.979292,92.7537327 L208.729846,80.4952258 L197.939098,69.7044781 C207.615436,63.815321 221.867196,55.8423084 234.596835,51.4662118 Z M77.5284872,263.484925 L27.3709898,213.327428 C35.516147,206.351042 48.6353768,206.804054 56.3094014,214.432777 L76.4050173,234.519333 C84.3146082,242.456104 84.6951383,255.104202 77.5284872,263.484925 Z M90.946705,217.033066 L73.8319087,199.91827 L85.5377408,188.212438 L102.661597,205.336295 L90.946705,217.033066 Z M147.518853,193.603282 C140.968299,200.135716 129.570515,200.144776 123.00184,193.639523 L97.2254524,167.863135 C90.5027532,161.086075 90.5118134,150.105062 97.2616934,143.346122 L156.126083,84.4817321 C159.40589,81.2109849 163.763867,79.3898763 168.40271,79.3898763 C173.014373,79.3898763 177.354229,81.1928644 180.634036,84.4364309 L206.365123,110.167517 C209.64493,113.447324 211.456978,117.814361 211.456978,122.444144 C211.456978,127.073928 209.65399,131.440964 206.365123,134.720772 L147.518853,193.603282 Z M214.175051,465.8273 C212.000593,493.325134 199.243773,518.340461 178.242133,536.234438 C172.706325,540.963884 165.648397,543.573233 158.382083,543.573233 C149.394323,543.573233 140.886757,539.650149 135.070082,532.818727 L30.3427491,410.079634 C26.3471825,405.386429 26.9089175,398.31944 31.6021226,394.314814 L116.451285,321.923483 C119.042514,319.712784 121.824008,319.241652 123.699478,319.241652 C126.988346,319.241652 130.096009,320.67317 132.216105,323.173797 L189.78488,390.645416 C207.687918,411.628935 216.358569,438.329467 214.175051,465.8273 Z M279.508453,335.921557 L283.313754,363.002619 L256.187391,359.505365 C252.644837,358.997992 249.174764,360.257365 246.683198,362.767052 C244.191631,365.276739 243.03192,368.810233 243.512113,372.307487 L247.317415,399.406669 L221.069895,396.05438 C217.083388,388.978331 212.399243,382.237512 207.01746,375.922523 L152.166757,311.631049 L219.78334,253.971671 L289.012646,323.200977 C286.638863,323.563387 284.400983,324.623435 282.670477,326.372062 C280.187971,328.890809 279.02826,332.415243 279.508453,335.921557 Z M185.490326,187.659763 L200.430664,172.719425 L325.434817,297.714518 L320.632889,302.516446 C320.551347,302.597988 320.469805,302.67047 320.397323,302.752012 L310.494479,312.654856 L185.490326,187.659763 Z M530.006012,489.610435 L502.390396,517.226051 C497.66095,521.946437 491.373142,524.564847 484.695744,524.564847 C478.009286,524.564847 471.721478,521.955497 467.399743,517.651882 L316.945371,350.581027 C313.674624,346.93881 313.810527,341.366762 317.27154,337.91481 L318.503733,336.682617 C318.503733,336.682617 328.823348,326.363002 349.462578,305.723771 C349.468618,305.717731 349.876329,305.307 350.685711,304.491578 C352.416217,302.761072 354.735639,301.800687 357.190964,301.800687 C359.474145,301.800687 361.657663,302.643289 363.351928,304.16541 L530.015072,454.212071 C539.754832,463.969951 539.763892,479.852554 530.006012,489.610435 Z" id="Shape"></path>
                        </g>
                    </g>
                </g>
            </g>
            <g id="Group-3" transform="translate(0.000000, 277.000000)" stroke="#FFFFFF" stroke-width="80" stroke-linecap="square">
                <path d="M0,1.66666667 L1726,1.66666667" id="Line"></path>
                <path d="M2504,4.66666667 L4230,4.66666667" id="Line"></path>
            </g>
        </g>
    </g>
</svg>