<?xml version="1.0" encoding="UTF-8"?>
<svg width="344px" height="348px" viewBox="0 0 344 348" version="1.1" xmlns="http://www.w3.org/2000/svg" xmlns:xlink="http://www.w3.org/1999/xlink">
    <!-- Generator: Sketch 45 (43475) - http://www.bohemiancoding.com/sketch -->
    <title>Group 3</title>
    <desc>Created with Sketch.</desc>
    <defs></defs>
    <g id="Logo" stroke="none" stroke-width="1" fill="none" fill-rule="evenodd">
        <g id="Group-3" fill-rule="nonzero" fill="#16887F">
            <g id="Group-2">
                <g id="icon_light_tools">
                    <g id="Group">
                        <path d="M80.0777778,215.494444 C78.8777778,214.094444 77.1777778,213.227778 75.3388889,213.077778 C73.5277778,212.938889 71.6944444,213.522222 70.2833333,214.716667 L44.85,236.422222 C37.3777778,242.794444 36.4888889,254.066667 42.8611111,261.538889 L85.9444444,312.027778 C89.0722222,315.705556 93.6444444,317.816667 98.4777778,317.816667 C102.388889,317.816667 106.188889,316.411111 109.166667,313.872222 C117.638889,306.633333 122.794444,296.533333 123.677778,285.422222 C124.555556,274.311111 121.055556,263.527778 113.827778,255.044444 L80.0777778,215.494444 Z M100.144444,303.3 C99.55,303.816667 98.9055556,303.922222 98.4722222,303.922222 C98.0277778,303.922222 97.1833333,303.805556 96.5055556,303.011111 L53.4222222,252.516667 C52.0166667,250.872222 52.2111111,248.388889 53.8611111,246.983333 L74.0111111,229.788889 L103.25,264.055556 C108.077778,269.711111 110.411111,276.905556 109.827778,284.316667 C109.238889,291.733333 105.805556,298.477778 100.144444,303.3 Z" id="Shape"></path>
                        <path d="M232.377778,176.605556 C232.222222,176.466667 232.033333,176.372222 231.872222,176.238889 L230.833333,168.866667 L247.466667,171.011111 C249.655556,171.333333 251.772222,170.55 253.294444,169.011111 C254.816667,167.472222 255.533333,165.311111 255.238889,163.161111 L252.905556,146.544444 L269.55,148.666667 C271.683333,148.95 273.85,148.194444 275.372222,146.655556 C276.894444,145.116667 277.605556,142.955556 277.311111,140.811111 L274.977778,124.205556 L291.611111,126.355556 C293.794444,126.666667 295.916667,125.894444 297.438889,124.355556 C298.961111,122.816667 299.677778,120.655556 299.383333,118.505556 L297.05,101.894444 L313.683333,104.044444 C315.861111,104.355556 317.977778,103.583333 319.505556,102.05 C321.027778,100.511111 321.75,98.35 321.455556,96.2055556 L319.144444,79.5444444 L335.794444,81.6944444 C337.972222,82.0111111 340.088889,81.2333333 341.616667,79.7 C343.138889,78.1611111 343.861111,76 343.566667,73.8555556 L340.005556,48.1888889 C339.983333,48.0166667 339.877778,47.8833333 339.838889,47.7166667 C339.738889,47.2555556 339.566667,46.8333333 339.372222,46.3888889 C339.183333,45.9666667 339,45.5722222 338.738889,45.2 C338.633333,45.05 338.605556,44.8722222 338.488889,44.7333333 L304.133333,2.94444444 C302.95,1.50555556 301.238889,0.6 299.383333,0.438888889 C297.483333,0.283333333 295.677778,0.866666667 294.261111,2.07222222 L156.261111,119.766667 L133.011111,96.5166667 L136.655556,92.8722222 C141.294444,88.2388889 143.844444,82.0833333 143.844444,75.5222222 C143.844444,74.1 143.672222,72.7111111 143.438889,71.3388889 C147.477778,64.4222222 155.361111,52.6277778 160.444444,48.6888889 C164.694444,45.4055556 182.083333,35.9222222 192.733333,30.35 C194.694444,29.3222222 196.05,27.4333333 196.377778,25.2444444 C196.716667,23.0611111 195.988889,20.85 194.422222,19.2888889 L187.266667,12.1333333 C185.722222,10.5888889 183.538889,9.85 181.377778,10.1666667 C180.227778,10.3277778 153.055556,14.2277778 139.622222,18.8555556 C126.288889,23.4388889 111.516667,33.0333333 107.655556,35.6277778 C106.311111,35.4 104.944444,35.2277778 103.555556,35.2277778 C97,35.2277778 90.8388889,37.7833333 86.2055556,42.4166667 L50.1111111,78.5111111 C43.1166667,85.5055556 41.2944444,95.6944444 44.5277778,104.411111 L33.4333333,115.505556 C30.9055556,114.738889 28.2944444,114.216667 25.5833333,114.216667 C18.3777778,114.216667 11.6,117.022222 6.5,122.122222 L2.31666667,126.305556 C-0.394444444,129.016667 -0.394444444,133.411111 2.31666667,136.127778 L42.95,176.761111 C44.25,178.061111 46.0222222,178.794444 47.8611111,178.794444 C49.7055556,178.794444 51.4722222,178.061111 52.7777778,176.761111 L56.9555556,172.572222 C64.2333333,165.294444 66.3555556,154.883333 63.5555556,145.655556 L74.6555556,134.555556 C77.3611111,135.566667 80.2333333,136.155556 83.2111111,136.155556 C89.7666667,136.155556 95.9277778,133.6 100.561111,128.966667 L104.205556,125.322222 L125.2,146.316667 L81.9222222,183.222222 C80.05,182.677778 78.1277778,182.294444 76.1388889,182.294444 C71.2111111,182.294444 66.4333333,184.055556 62.6777778,187.261111 L10.65,231.655556 C1.95,239.088889 0.911111111,252.205556 8.33333333,260.905556 L72.5444444,336.172222 C78.7611111,343.461111 87.8277778,347.633333 97.4111111,347.633333 C105.172222,347.633333 112.7,344.855556 118.605556,339.816667 C134.294444,326.427778 143.838889,307.733333 145.466667,287.166667 C146.255556,277.194444 145.1,267.377778 142.216667,258.111111 L159.211111,260.283333 C159.505556,260.322222 159.794444,260.338889 160.088889,260.338889 C161.933333,260.338889 163.716667,259.6 165.033333,258.272222 C166.55,256.738889 167.266667,254.572222 166.972222,252.427778 L164.638889,235.822222 L181.272222,237.966667 C183.461111,238.294444 185.577778,237.505556 187.1,235.966667 C188.622222,234.427778 189.338889,232.261111 189.044444,230.116667 L189.016667,229.922222 L276.827778,327.411111 C282.35,332.933333 289.688889,335.977778 297.505556,335.977778 C305.311111,335.977778 312.655556,332.933333 318.177778,327.411111 L335.111111,310.477778 C346.511111,299.083333 346.511111,280.533333 334.85,268.883333 L232.377778,176.605556 Z M297.888889,17.2055556 L326.505556,52.0222222 L328.544444,66.7388889 L311.894444,64.5888889 C309.722222,64.2777778 307.6,65.05 306.072222,66.5833333 C304.55,68.1222222 303.827778,70.2833333 304.122222,72.4277778 L306.433333,89.0888889 L289.783333,86.9388889 C287.605556,86.6222222 285.477778,87.4 283.955556,88.9388889 C282.433333,90.4777778 281.716667,92.6388889 282.011111,94.7888889 L284.344444,111.4 L267.711111,109.25 C265.533333,108.927778 263.411111,109.711111 261.883333,111.25 C260.355556,112.788889 259.644444,114.95 259.938889,117.1 L262.272222,133.716667 L245.627778,131.594444 C243.483333,131.311111 241.327778,132.066667 239.805556,133.605556 C238.283333,135.144444 237.572222,137.305556 237.866667,139.45 L240.2,156.055556 L223.566667,153.905556 C221.394444,153.594444 219.266667,154.366667 217.738889,155.905556 C216.211111,157.444444 215.5,159.611111 215.794444,161.755556 L217.227778,171.922222 C214.85,172.166667 212.538889,172.816667 210.394444,173.877778 L166.1,129.583333 L297.888889,17.2055556 Z M144.133333,31.9722222 C151.183333,29.5444444 163.094444,27.2388889 171.944444,25.7166667 C164.138889,30 155.427778,34.9833333 151.927778,37.6888889 C146.255556,42.0833333 139.977778,50.8444444 135.783333,57.2888889 L128.272222,49.7722222 L121.655556,43.1555556 C127.588889,39.5444444 136.327778,34.6555556 144.133333,31.9722222 Z M47.8222222,161.977778 L17.0666667,131.222222 C22.0611111,126.944444 30.1055556,127.222222 34.8111111,131.9 L47.1333333,144.216667 C51.9833333,149.083333 52.2166667,156.838889 47.8222222,161.977778 Z M56.05,133.494444 L45.5555556,123 L52.7333333,115.822222 L63.2333333,126.322222 L56.05,133.494444 Z M90.7388889,119.127778 C86.7222222,123.133333 79.7333333,123.138889 75.7055556,119.15 L59.9,103.344444 C55.7777778,99.1888889 55.7833333,92.4555556 59.9222222,88.3111111 L96.0166667,52.2166667 C98.0277778,50.2111111 100.7,49.0944444 103.544444,49.0944444 C106.372222,49.0944444 109.033333,50.2 111.044444,52.1888889 L126.822222,67.9666667 C128.833333,69.9777778 129.944444,72.6555556 129.944444,75.4944444 C129.944444,78.3333333 128.838889,81.0111111 126.822222,83.0222222 L90.7388889,119.127778 Z M131.611111,286.05 C130.277778,302.911111 122.455556,318.25 109.577778,329.222222 C106.183333,332.122222 101.855556,333.722222 97.4,333.722222 C91.8888889,333.722222 86.6722222,331.316667 83.1055556,327.127778 L18.8888889,251.866667 C16.4388889,248.988889 16.7833333,244.655556 19.6611111,242.2 L71.6888889,197.811111 C73.2777778,196.455556 74.9833333,196.166667 76.1333333,196.166667 C78.15,196.166667 80.0555556,197.044444 81.3555556,198.577778 L116.655556,239.95 C127.633333,252.816667 132.95,269.188889 131.611111,286.05 Z M171.672222,206.394444 L174.005556,223 L157.372222,220.855556 C155.2,220.544444 153.072222,221.316667 151.544444,222.855556 C150.016667,224.394444 149.305556,226.561111 149.6,228.705556 L151.933333,245.322222 L135.838889,243.266667 C133.394444,238.927778 130.522222,234.794444 127.222222,230.922222 L93.5888889,191.5 L135.05,156.144444 L177.5,198.594444 C176.044444,198.816667 174.672222,199.466667 173.611111,200.538889 C172.088889,202.083333 171.377778,204.244444 171.672222,206.394444 Z M114.022222,115.483333 L123.183333,106.322222 L199.833333,182.966667 L196.888889,185.911111 C196.838889,185.961111 196.788889,186.005556 196.744444,186.055556 L190.672222,192.127778 L114.022222,115.483333 Z M325.272222,300.633333 L308.338889,317.566667 C305.438889,320.461111 301.583333,322.066667 297.488889,322.066667 C293.388889,322.066667 289.533333,320.466667 286.883333,317.827778 L194.627778,215.383333 C192.622222,213.15 192.705556,209.733333 194.827778,207.616667 L195.583333,206.861111 C195.583333,206.861111 201.911111,200.533333 214.566667,187.877778 C214.57037,187.874074 214.82037,187.622222 215.316667,187.122222 C216.377778,186.061111 217.8,185.472222 219.305556,185.472222 C220.705556,185.472222 222.044444,185.988889 223.083333,186.922222 L325.277778,278.927778 C331.25,284.911111 331.255556,294.65 325.272222,300.633333 Z" id="Shape"></path>
                    </g>
                </g>
            </g>
        </g>
    </g>
</svg>