<?xml version="1.0" encoding="UTF-8"?>
<svg width="2722px" height="330px" viewBox="0 0 2722 330" version="1.1" xmlns="http://www.w3.org/2000/svg" xmlns:xlink="http://www.w3.org/1999/xlink">
    <!-- Generator: Sketch 45 (43475) - http://www.bohemiancoding.com/sketch -->
    <title>Group 3</title>
    <desc>Created with Sketch.</desc>
    <defs></defs>
    <g id="Line-break" stroke="none" stroke-width="1" fill="none" fill-rule="evenodd">
        <g id="Group-3" transform="translate(40.000000, 0.000000)">
            <g id="Group-2" transform="translate(0.000000, 0.218235)">
                <g id="noun_901847_cc" transform="translate(1155.000000, 0.000000)" fill-rule="nonzero" fill="#15445B">
                    <g id="Group">
                        <path d="M304.363273,132.597273 C304.348654,132.586504 304.343781,132.570351 304.329162,132.554198 L259.579603,89.0531419 L170.51419,2.44948047 C170.445967,2.38486694 170.367998,2.34179126 170.299774,2.27717773 C170.095105,2.09410608 169.885562,1.93257227 169.666273,1.77642291 C169.476223,1.63642694 169.281299,1.49643097 169.081503,1.3833573 C168.867087,1.25951471 168.642925,1.15720997 168.418763,1.05490522 C168.370032,1.03336738 168.326174,1.00644507 168.282316,0.984907232 C168.253078,0.974138311 168.228712,0.95798493 168.199474,0.941831549 C168.053281,0.882602484 167.911962,0.83414234 167.760896,0.785682197 C167.531861,0.710299751 167.302826,0.661839607 167.073791,0.613379463 C166.844756,0.564919319 166.620594,0.516459175 166.391559,0.494921334 C166.186889,0.473383492 165.982219,0.467999031 165.772677,0.467999031 C165.709326,0.467999031 165.650849,0.467999031 165.592372,0.467999031 C165.397449,0.473383492 165.202525,0.473383492 165.007602,0.494921334 C164.754201,0.521843636 164.505674,0.57568824 164.257146,0.629532844 C164.047604,0.677992988 163.842934,0.721068671 163.638264,0.785682197 C163.482326,0.83414234 163.33126,0.887986945 163.180194,0.947216009 C163.14121,0.963369391 163.107098,0.984907232 163.072986,1.00106061 C163.019382,1.02259846 162.970651,1.05490522 162.917048,1.07644306 C162.712378,1.16797889 162.507708,1.26489917 162.307912,1.37797284 C162.093496,1.50181543 161.888826,1.65258032 161.679283,1.79796076 C161.474614,1.94872565 161.274817,2.09949054 161.079894,2.27179327 C161.006797,2.3364068 160.923955,2.37948248 160.855732,2.44948047 L104.094013,57.6401998 L27.0310141,132.554198 C27.0066486,132.575736 26.9920294,132.608042 26.9676639,132.62958 L2.48040133,156.439664 C2.40243193,156.515047 2.34395489,156.611967 2.27085858,156.687349 C2.13928523,156.827345 2.02720423,156.97811 1.90537705,157.123491 C1.70558048,157.371176 1.50578391,157.618861 1.33522586,157.8827 C1.23776412,158.033464 1.15979473,158.200383 1.07207916,158.356532 C0.916140373,158.641908 0.765074673,158.927285 0.643247496,159.234199 C0.570151189,159.411886 0.521420318,159.600342 0.458070186,159.788799 C0.360608445,160.095713 0.263146703,160.397243 0.199796571,160.709541 C0.155938787,160.914151 0.136446438,161.124145 0.107207916,161.328754 C0.0633501321,161.646437 0.0292385225,161.958736 0.0194923484,162.281804 C0.0194923484,162.362571 0,162.437953 0,162.513336 C0,162.669485 0.0341116096,162.809481 0.0389846967,162.96563 C0.053603958,163.261776 0.0730963063,163.552536 0.11695409,163.843297 C0.155938787,164.107136 0.214415832,164.360205 0.277765964,164.613275 C0.336243009,164.850191 0.399593141,165.087108 0.477562535,165.324024 C0.575024276,165.6094 0.687105279,165.878623 0.808932457,166.147846 C0.896648024,166.336302 0.979490505,166.519374 1.08182533,166.702446 C1.24751029,167.003976 1.43756069,167.283967 1.63735726,167.558575 C1.70070739,167.644726 1.74456518,167.747031 1.81766148,167.833182 C1.85177309,167.876258 1.89563088,167.90318 1.92974249,167.946256 C2.20750845,168.280093 2.50963985,168.581622 2.83613669,168.861614 C2.91410608,168.926228 2.9823293,169.006995 3.06517178,169.071608 C4.2639512,170.024658 5.72100424,170.595411 7.30963063,170.595411 L24.5506127,170.595411 L24.5506127,321.516452 C24.5506127,325.98017 27.8204542,329.593142 31.8602434,329.593142 L114.537039,329.593142 C118.576828,329.593142 121.84667,325.98017 121.84667,321.516452 L121.84667,266.358039 C121.84667,239.672653 141.514449,217.962509 165.684961,217.962509 C177.399862,217.962509 188.413039,222.996979 196.687541,232.139793 C204.966916,241.287992 209.523252,253.440719 209.523252,266.358039 L209.523252,321.521836 C209.523252,325.985554 212.793094,329.598527 216.832883,329.598527 L299.499932,329.598527 C303.539722,329.598527 306.809563,325.985554 306.809563,321.521836 L306.809563,170.595411 L324.050545,170.595411 C325.108005,170.595411 326.102115,170.336957 327.008509,169.895431 C327.037748,169.879277 327.066986,169.85774 327.096225,169.841586 C327.51531,169.626208 327.914903,169.378523 328.285258,169.082377 C328.392466,169.00161 328.485054,168.899306 328.587389,168.80777 C328.879774,168.549316 329.15754,168.280093 329.406068,167.978563 C329.449926,167.924718 329.50353,167.892411 329.547387,167.838567 C329.635103,167.730878 329.69358,167.601651 329.771549,167.493961 C329.942107,167.257045 330.107792,167.014744 330.253985,166.750906 C330.380685,166.530143 330.487893,166.298611 330.590228,166.067079 C330.692563,165.840932 330.785152,165.620169 330.867994,165.383253 C330.965456,165.097877 331.043425,164.8125 331.111648,164.521739 C331.160379,164.31713 331.204237,164.117905 331.238349,163.907911 C331.291953,163.557921 331.321191,163.207931 331.33581,162.857941 C331.340683,162.744867 331.365049,162.637178 331.365049,162.524104 C331.365049,162.464875 331.35043,162.411031 331.35043,162.351802 C331.345557,161.969505 331.301699,161.587208 331.248095,161.210296 C331.228602,161.064916 331.213983,160.914151 331.184745,160.774155 C331.106775,160.397243 330.999567,160.025715 330.872867,159.659571 C330.829009,159.535729 330.799771,159.411886 330.75104,159.288044 C330.60972,158.927285 330.434289,158.588064 330.244239,158.254227 C330.180889,158.146538 330.132158,158.033464 330.063935,157.93116 C329.869011,157.624245 329.644849,157.338869 329.410941,157.058877 C329.318352,156.945803 329.230637,156.83273 329.133175,156.725041 C329.050333,156.638889 328.986982,156.5312 328.899267,156.445049 L304.363273,132.597273 Z M292.190302,313.439761 L224.137641,313.439761 L224.137641,266.352655 C224.137641,249.116997 218.060901,232.909771 207.023359,220.708584 C195.985817,208.52355 181.303205,201.809128 165.684961,201.809128 C133.454363,201.809128 107.227408,230.766756 107.227408,266.358039 L107.227408,313.445146 L39.169874,313.445146 L39.169874,142.283918 L103.177873,80.0503241 L165.684961,19.2866882 L260.461632,111.420191 L292.195175,142.273149 L292.195175,313.439761 L292.190302,313.439761 Z" id="Shape"></path>
                    </g>
                </g>
                <path d="M1626,178.666667 L2641.85873,178.666667" id="Line" stroke="#15445B" stroke-width="80" stroke-linecap="square"></path>
                <path d="M0,178.666667 L1015.85873,178.666667" id="Line" stroke="#15445B" stroke-width="80" stroke-linecap="square"></path>
                <path d="M1626,178.666667 L2641.85873,178.666667" id="Line" stroke="#15445B" stroke-width="80" stroke-linecap="square"></path>
            </g>
        </g>
    </g>
</svg>