<?xml version="1.0" encoding="UTF-8"?>
<svg width="2722px" height="386px" viewBox="0 0 2722 386" version="1.1" xmlns="http://www.w3.org/2000/svg" xmlns:xlink="http://www.w3.org/1999/xlink">
    <!-- Generator: Sketch 45 (43475) - http://www.bohemiancoding.com/sketch -->
    <title>Group 4</title>
    <desc>Created with Sketch.</desc>
    <defs></defs>
    <g id="Line-break" stroke="none" stroke-width="1" fill="none" fill-rule="evenodd">
        <g id="Group-4" transform="translate(40.000000, 0.000000)">
            <g id="Group-3" transform="translate(0.000000, 153.000000)" stroke-linecap="square" stroke="#15445B" stroke-width="80">
                <g id="Group-2" transform="translate(0.000000, 0.218235)">
                    <path d="M1626,26.6666667 L2641.85873,26.6666667" id="Line"></path>
                    <path d="M0,26.6666667 L1015.85873,26.6666667" id="Line"></path>
                    <path d="M1626,26.6666667 L2641.85873,26.6666667" id="Line"></path>
                </g>
            </g>
            <g id="Group-2" transform="translate(1130.000000, 0.000000)" fill-rule="nonzero" fill="#15445B">
                <g id="icon_light_tools">
                    <g id="Group">
                        <path d="M142.040948,195.947169 C140.707193,194.391122 138.817707,193.427854 136.773851,193.261135 C134.760869,193.106765 132.723188,193.755118 131.154791,195.082699 L102.886597,219.207608 C94.5815023,226.290094 93.5935357,238.818745 100.676021,247.12384 L148.561528,303.240343 C152.037935,307.328055 157.119788,309.674475 162.491857,309.674475 C166.83891,309.674475 171.062467,308.112253 174.372155,305.290373 C183.788712,297.24462 189.518918,286.01885 190.50071,273.669267 C191.476327,261.319685 187.586209,249.334415 179.552805,239.905508 L142.040948,195.947169 Z M164.344294,293.539746 C163.683592,294.114001 162.967316,294.231322 162.485682,294.231322 C161.991699,294.231322 161.053131,294.101652 160.299806,293.218656 L112.4143,237.095978 C110.852077,235.26824 111.068195,232.508109 112.902108,230.945886 L135.298076,211.834907 L167.796003,249.92102 C173.161896,256.206957 175.755309,264.203312 175.106955,272.440484 C174.452428,280.68383 170.636407,288.180027 164.344294,293.539746 Z" id="Shape"></path>
                        <path d="M257.964256,195.830084 C257.791361,195.675714 257.581418,195.570743 257.40235,195.422548 L256.247664,187.2286 L274.734989,189.612069 C277.167856,189.970207 279.520452,189.099561 281.212345,187.389144 C282.904238,185.678727 283.700786,183.276733 283.373522,180.887089 L280.780109,162.418288 L299.279784,164.777059 C301.650904,165.091973 304.059073,164.252201 305.750965,162.541784 C307.442858,160.831367 308.233231,158.429373 307.905967,156.045904 L305.312555,137.589453 L323.79988,139.979097 C326.226573,140.324885 328.585343,139.466589 330.277236,137.756172 C331.969129,136.045755 332.765677,133.643761 332.438413,131.254117 L329.845001,112.791491 L348.332326,115.181135 C350.752844,115.526923 353.10544,114.668627 354.803507,112.964385 C356.4954,111.253968 357.298123,108.851974 356.970859,106.468504 L354.402146,87.9503054 L372.907995,90.3399496 C375.328514,90.6919127 377.681109,89.8274419 379.379177,88.1231995 C381.071069,86.4127823 381.873792,84.0107885 381.546528,81.6273191 L377.588487,53.0997833 C377.563788,52.9083648 377.446467,52.7601698 377.403243,52.5749261 C377.292097,52.0624184 377.100679,51.5931343 376.884561,51.099151 C376.674618,50.6298668 376.47085,50.1914566 376.180635,49.7777456 C376.063314,49.6110263 376.03244,49.4134329 375.902769,49.2590632 L337.71786,2.81228311 C336.402629,1.21301216 334.500794,0.206521183 332.438413,0.0274522359 C330.326635,-0.14544192 328.319827,0.502911165 326.745256,1.84284087 L173.36344,132.655794 L147.521939,106.814293 L151.572602,102.76363 C156.728552,97.6138537 159.562782,90.772185 159.562782,83.4797565 C159.562782,81.8990099 159.371363,80.3553121 159.112022,78.8301386 C163.601095,71.1425235 172.363124,58.0334416 178.013058,53.6555146 C182.736773,50.0062129 202.06387,39.4658442 213.900945,33.2725285 C216.080646,32.1301921 217.587295,30.0307631 217.951608,27.5978953 C218.32827,25.1712024 217.519373,22.7136354 215.778081,20.9785191 L207.82495,13.0253879 C206.108358,11.3087959 203.681665,10.4875487 201.279672,10.8395118 C200.00149,11.0185807 169.800586,15.3532842 154.86994,20.4968853 C140.050441,25.5910882 123.631671,36.2549527 119.340191,39.1385802 C117.845892,38.8854138 116.326893,38.6939953 114.783195,38.6939953 C107.496941,38.6939953 100.649098,41.5343993 95.499322,46.6841752 L55.381703,86.8017942 C47.6076408,94.5758564 45.5823093,105.900424 49.1760378,115.588671 L36.8449796,127.919729 C34.0354496,127.067608 31.1332977,126.487178 28.1199995,126.487178 C20.1112952,126.487178 12.5780498,129.605447 6.90959145,135.273906 L2.25997361,139.923524 C-0.753324537,142.936822 -0.753324537,147.821082 2.25997361,150.840555 L47.4223971,196.002978 C48.8672982,197.447879 50.8370567,198.262952 52.8809126,198.262952 C54.9309433,198.262952 56.8945269,197.447879 58.3456029,196.002978 L62.9890459,191.347185 C71.0780225,183.258209 73.4367928,171.68665 70.324698,161.430322 L82.6619309,149.093089 C85.6690543,150.216901 88.8614214,150.871429 92.1711095,150.871429 C99.4573632,150.871429 106.305207,148.031025 111.454983,142.881249 L115.505646,138.830586 L138.840182,162.165122 L90.7385579,203.18426 C88.6576533,202.579131 86.5211755,202.15307 84.3106002,202.15307 C78.8335603,202.15307 73.5232398,204.110479 69.3490809,207.673334 L11.5221605,257.016091 C1.85243739,265.277962 0.697751415,279.856644 8.94727257,289.526367 L80.3155103,373.182439 C87.2251017,381.283765 97.3023611,385.921034 107.953876,385.921034 C116.580059,385.921034 124.946902,382.833638 131.510705,377.233102 C148.948315,362.351855 159.556607,341.573683 161.365821,318.714605 C162.242641,307.630855 160.958284,296.719999 157.753568,286.420447 L176.642254,288.83479 C176.969518,288.878014 177.290607,288.896538 177.617871,288.896538 C179.667902,288.896538 181.65001,288.075291 183.113436,286.599516 C184.799154,284.895273 185.595702,282.487105 185.268438,280.103635 L182.675025,261.647184 L201.162351,264.030654 C203.595218,264.394966 205.947814,263.518146 207.639707,261.807729 C209.331599,260.097312 210.128147,257.689143 209.800884,255.305674 L209.77001,255.089556 L307.368761,363.444793 C313.506503,369.582536 321.663402,372.966322 330.351334,372.966322 C339.026916,372.966322 347.18999,369.582536 353.327732,363.444793 L372.148496,344.62403 C384.819168,331.959533 384.819168,311.341905 371.858281,298.393367 L257.964256,195.830084 Z M330.777394,18.6629723 L362.583744,57.3603893 L364.849893,73.7174114 L346.344043,71.3277672 C343.9297,70.9819789 341.57093,71.8402749 339.872862,73.5445173 C338.180969,75.2549345 337.378246,77.6569283 337.70551,80.0403977 L340.274223,98.5585968 L321.768374,96.1689526 C319.347856,95.8169895 316.982911,96.6814602 315.291018,98.3918774 C313.599125,100.102295 312.802577,102.504288 313.129841,104.893933 L315.723253,123.356559 L297.235928,120.966914 C294.81541,120.608776 292.45664,121.479422 290.758572,123.189839 C289.060504,124.900256 288.270131,127.30225 288.597395,129.691894 L291.190807,148.160695 L272.691133,145.801925 C270.307663,145.487011 267.911844,146.326782 266.219952,148.037199 C264.528059,149.747617 263.737685,152.14961 264.064949,154.53308 L266.658362,172.989531 L248.171037,170.599887 C245.756693,170.254098 243.391748,171.112394 241.693681,172.822812 C239.995613,174.533229 239.20524,176.941397 239.532504,179.324867 L241.1256,190.624735 C238.482789,190.896426 235.914076,191.618876 233.530606,192.798261 L184.298996,143.56665 L330.777394,18.6629723 Z M159.883871,35.0755676 C167.719681,32.3771838 180.958433,29.8146454 190.794876,28.1227526 C182.119294,32.8835167 172.437221,38.4223045 168.547103,41.4294278 C162.242641,46.3136877 155.265127,56.0513336 150.603159,63.2140915 L142.254842,54.8595989 L134.900665,47.5054224 C141.495342,43.4918081 151.208289,38.0579918 159.883871,35.0755676 Z M52.837689,179.571858 L18.6540445,145.388214 C24.2051818,140.633625 33.1462796,140.942364 38.3763278,146.141538 L52.0720149,159.831051 C57.4626077,165.240168 57.7219489,173.860177 52.837689,179.571858 Z M61.9825549,147.913704 L50.3183742,136.249523 L58.2962045,128.271692 L69.9665601,139.942048 L61.9825549,147.913704 Z M100.537952,131.945693 C96.0735776,136.397718 88.3056902,136.403893 83.8289665,131.970392 L66.2616853,114.403111 C61.6799902,109.784367 61.6861649,102.30052 66.2863845,97.694126 L106.404003,57.576507 C108.639278,55.3474074 111.609352,54.1062743 114.770846,54.1062743 C117.913814,54.1062743 120.871539,55.3350578 123.106814,57.5456331 L140.643221,75.0820403 C142.878496,77.3173148 144.113454,80.2935642 144.113454,83.4488825 C144.113454,86.6042009 142.88467,89.5804503 140.643221,91.8157247 L100.537952,131.945693 Z M145.965891,317.473472 C144.483941,336.213964 135.789835,353.262563 121.476669,365.457775 C117.703871,368.681016 112.893709,370.459356 107.941526,370.459356 C101.816134,370.459356 96.0180045,367.785672 92.0537885,363.129879 L20.679376,279.479981 C17.9562931,276.28144 18.3391301,271.465102 21.537672,268.735845 L79.3645924,219.399262 C81.1305827,217.892613 83.0262436,217.571524 84.3044254,217.571524 C86.5458747,217.571524 88.6638281,218.547141 90.1087292,220.251383 L129.343353,266.235054 C141.544741,280.535871 147.454016,298.732981 145.965891,317.473472 Z M190.492311,228.939315 L193.085724,247.395766 L174.598398,245.012297 C172.184055,244.666508 169.81911,245.524804 168.121042,247.235221 C166.422975,248.945639 165.632601,251.353807 165.959865,253.737277 L168.553278,272.206077 L150.664907,269.921405 C147.947999,265.098893 144.755632,260.504848 141.087806,256.201018 L103.70562,212.384699 L149.788087,173.088328 L196.969667,220.269908 C195.351872,220.516899 193.826698,221.23935 192.647313,222.431085 C190.955421,224.147677 190.165047,226.549671 190.492311,228.939315 Z M126.416502,127.89503 L136.598733,117.712799 L221.792328,202.90022 L218.519689,206.172859 C218.464116,206.228432 218.408543,206.277831 218.359144,206.333404 L211.610097,213.082451 L126.416502,127.89503 Z M361.212941,333.682299 L342.392177,352.503063 C339.168936,355.720129 334.883631,357.504644 330.332809,357.504644 C325.775813,357.504644 321.490508,355.726304 318.545133,352.793278 L216.006549,238.930127 C213.777449,236.447861 213.870071,232.650364 216.228841,230.297769 L217.068613,229.457997 C217.068613,229.457997 224.1017,222.42491 238.167875,208.358735 C238.171991,208.354619 238.449857,208.074695 239.001472,207.518964 C240.180857,206.339579 241.761603,205.685051 243.434972,205.685051 C244.991019,205.685051 246.479144,206.259306 247.63383,207.296671 L361.219115,309.55739 C367.857016,316.20764 367.863191,327.032049 361.212941,333.682299 Z" id="Shape"></path>
                    </g>
                </g>
            </g>
        </g>
    </g>
</svg>