<?xml version="1.0" encoding="UTF-8"?>
<svg width="480px" height="500px" viewBox="0 0 480 500" version="1.1" xmlns="http://www.w3.org/2000/svg" xmlns:xlink="http://www.w3.org/1999/xlink">
    <!-- Generator: Sketch 45 (43475) - http://www.bohemiancoding.com/sketch -->
    <title>to-edit_icon_light_paint3</title>
    <desc>Created with Sketch.</desc>
    <defs></defs>
    <g id="Page-3" stroke="none" stroke-width="1" fill="none" fill-rule="evenodd">
        <g id="to-edit_icon_light_paint3" transform="translate(-10.000000, 0.000000)" fill-rule="nonzero" fill="#686868">
            <path d="M473.647727,0.278571429 L26.3636364,0.278571429 C17.5568182,0.278571429 10.4090909,4.77142857 10.4090909,10.3071429 L10.4090909,228.428571 C10.4090909,275.721429 71.6136364,314.185714 146.840909,314.185714 C160.443182,314.185714 171.511364,321.142857 171.511364,329.692857 L171.511364,450.378571 C171.511364,477.592857 206.727273,499.721429 250.011364,499.721429 C293.295455,499.721429 328.5,477.585714 328.5,450.378571 L328.5,329.692857 C328.5,321.142857 339.568182,314.185714 353.170455,314.185714 C428.397727,314.185714 489.613636,275.714286 489.613636,228.428571 L489.613636,10.3071429 C489.602273,4.76428571 482.454545,0.278571429 473.647727,0.278571429 Z M42.3181818,189.685714 L457.681818,189.685714 L457.681818,218.4 L42.3181818,218.4 L42.3181818,189.685714 Z M457.681818,20.3357143 L457.681818,169.621429 L400.147727,169.621429 L400.147727,62.4714286 C400.147727,56.9357143 393,52.4428571 384.193182,52.4428571 C375.386364,52.4428571 368.238636,56.9357143 368.238636,62.4714286 L368.238636,169.621429 L310.704545,169.621429 L310.704545,62.4714286 C310.704545,56.9357143 303.556818,52.4428571 294.75,52.4428571 C285.943182,52.4428571 278.795455,56.9357143 278.795455,62.4714286 L278.795455,169.621429 L221.25,169.621429 L221.25,62.4714286 C221.25,56.9357143 214.102273,52.4428571 205.295455,52.4428571 C196.488636,52.4428571 189.340909,56.9357143 189.340909,62.4714286 L189.340909,169.621429 L131.806818,169.621429 L131.806818,62.4714286 C131.806818,56.9357143 124.659091,52.4428571 115.852273,52.4428571 C107.045455,52.4428571 99.8977273,56.9357143 99.8977273,62.4714286 L99.8977273,169.621429 L42.3636364,169.621429 L42.3636364,20.3357143 L457.681818,20.3357143 Z M353.159091,294.128571 C321.965909,294.128571 296.579545,310.078571 296.579545,329.692857 L296.579545,450.378571 C296.579545,466.528571 275.681818,479.664286 250,479.664286 C224.318182,479.664286 203.420455,466.528571 203.420455,450.378571 L203.420455,329.692857 C203.420455,310.078571 178.034091,294.128571 146.840909,294.128571 C94.6363636,294.128571 51.2386364,269.942857 43.5454545,238.464286 L456.477273,238.464286 C448.761364,269.942857 405.375,294.128571 353.159091,294.128571 Z" id="Shape"></path>
        </g>
    </g>
</svg>